<svg width="10" height="13" viewBox="0 0 10 13" fill="none" xmlns="http://www.w3.org/2000/svg">
<path d="M9.25 5.5C9.25 9 5.125 12 5.125 12C5.125 12 1 9 1 5.5C1 4.30653 1.4346 3.16193 2.20818 2.31802C2.98177 1.47411 4.03098 1 5.125 1C6.21902 1 7.26823 1.47411 8.04182 2.31802C8.8154 3.16193 9.25 4.30653 9.25 5.5Z" fill="#79808B" stroke="#79808B" stroke-width="0.5" stroke-linecap="round" stroke-linejoin="round"/>
<path d="M5.125 7.01562C5.97932 7.01562 6.67188 6.32307 6.67188 5.46875C6.67188 4.61443 5.97932 3.92188 5.125 3.92188C4.27068 3.92188 3.57812 4.61443 3.57812 5.46875C3.57812 6.32307 4.27068 7.01562 5.125 7.01562Z" fill="white" stroke="#79808B" stroke-width="0.5" stroke-linecap="round" stroke-linejoin="round"/>
</svg>
