<svg xmlns="http://www.w3.org/2000/svg" xmlns:xlink="http://www.w3.org/1999/xlink" viewBox="0 0 800 800"><defs><style>.cls-1{fill:none;}.cls-2{clip-path:url(#clip-path);}.cls-3{fill:#54324f;}.cls-4{fill:#ffc973;}.cls-5{fill:#c98a2f;}.cls-6{fill:#dda14a;}</style><clipPath id="clip-path"><path class="cls-1" d="M256.38,19.89C-53.9,68.41-20.31,558.21,170.18,716.28c186.73,154.94,432.14,31,542.41-134.13C901.62,299.16,636.09-40.39,256.38,19.89Z"/></clipPath></defs><title>Artboard 97 copy 2</title><g id="Layer_1" data-name="Layer 1"><g class="cls-2"><rect class="cls-3" width="800" height="800"/><path class="cls-4" d="M635.07,502.16c-4.26-7.78-28.15-16.75-44.16-24s-48.72-39.4-57.25-58.8c-6.8-15.46,5.74-46.61,11.11-58.62a3.85,3.85,0,0,0-3.26-5.39c-59-4.17-79.51,41.08-79.51,41.08C109.9,234.62,47.44,409.91,34.79,489.13,23.31,561,92,703.2,104.86,728.9a7,7,0,0,0,6.51,3.86l94.94-3.55a7,7,0,0,0,6.52-8.69L198.66,663.9,342,658.55l28,60.25a7,7,0,0,0,6.61,4.05l79.12-3a7,7,0,0,0,6.73-6.87l1.12-66.82c106.27-23.53,152.81-70.66,166-84.81C645,544.67,639.33,509.81,635.07,502.16Z"/><circle class="cls-5" cx="346.63" cy="146.33" r="40.78" transform="translate(188.81 487.88) rotate(-88.09)"/><circle class="cls-4" cx="294.35" cy="21.43" r="40.78" transform="matrix(0.03, -1, 1, 0.03, 263.11, 314.9)"/><circle class="cls-4" cx="264.45" cy="258.38" r="40.78"/><rect class="cls-3" x="184.12" y="375.95" width="141.31" height="20"/><path class="cls-6" d="M200.68,492.41c0-14.77,11.24-26.23,26.67-26.18s26.56,11.57,26.52,26.35-11.25,26.23-26.68,26.18S200.64,507.19,200.68,492.41Zm10.24,87.2,88.84-117.43,10.32,8.24L221.24,588Zm28.5-87.08c0-7.22-4.39-12.65-12.11-12.67-7.55,0-12.16,5.38-12.18,12.6s4.55,12.65,12.11,12.68S239.4,499.76,239.42,492.53Zm27.71,65.09c.05-14.77,11.24-26.23,26.67-26.18s26.56,11.57,26.52,26.35S309.07,584,293.64,584,267.08,572.4,267.13,557.62Zm38.74.12c0-7.22-4.39-12.65-12.11-12.67-7.55,0-12.16,5.38-12.18,12.6s4.55,12.65,12.11,12.68S305.85,565,305.87,557.74Z"/></g></g></svg>