<svg width="699" height="518" viewBox="0 0 699 518" fill="none" xmlns="http://www.w3.org/2000/svg">
<path d="M643.603 125.918C564.365 15.7784 396.979 -28.8991 232.36 19.2197C145.331 44.6586 61.4194 95.6294 19.8346 194.325C-54.5027 370.755 101.578 427.102 203.637 445.06C252.988 453.744 299.468 468.331 341.941 488.191C418.355 523.921 553.613 555.582 655.607 406.75C729.532 298.876 696.383 199.283 643.603 125.918Z" fill="#F5FBFF"/>
<path d="M196.199 135.661C195.993 134.038 195.578 132.448 194.962 130.932C194.884 130.645 194.746 130.378 194.558 130.147C194.371 129.916 194.137 129.727 193.872 129.591C193.518 129.5 193.147 129.495 192.791 129.579L187.24 130.428C186.775 130.449 186.33 130.622 185.973 130.919C185.25 131.679 185.962 132.902 185.94 133.949C185.915 135.128 184.867 136.084 183.731 136.4C182.571 136.634 181.374 136.62 180.22 136.357L172.458 135.152C174.744 134.423 176.779 133.067 178.33 131.238C179.351 130.029 179.895 127.773 178.419 127.201C177.98 127.08 177.523 127.044 177.07 127.093C173.554 127.12 170.786 124.187 167.494 122.952C165.387 122.212 163.099 122.157 160.959 122.795C158.819 123.432 156.935 124.729 155.577 126.5L159.712 126.699C160.101 126.678 160.487 126.781 160.813 126.993C161.72 127.736 160.593 129.165 160.721 130.329C160.887 131.842 162.898 132.165 164.414 132.318C165.93 132.471 167.853 133.701 167.124 135.038C159.504 137.659 151.75 129.913 143.747 130.867C141.722 131.108 139.809 131.903 137.832 132.402C125.752 135.455 113.264 127.31 100.924 129.035C98.1803 129.502 95.4841 130.213 92.8669 131.158C91.1874 131.708 89.4355 132.304 88.2152 133.581C86.9949 134.858 86.5305 137.043 87.6865 138.379C84.5001 138.641 81.2924 138.336 78.2125 137.479C79.0454 137.941 79.7382 138.619 80.2184 139.441C80.6985 140.263 80.9482 141.2 80.9413 142.151C75.9661 142.962 71.1226 144.437 66.5412 146.537C67.3962 147.957 68.395 149.286 69.5216 150.502L63.2231 154.544C65.3511 155.079 66.4513 157.977 65.2138 159.788C67.4202 158.807 68.7877 156.271 71.1471 155.757C72.6928 155.42 74.2656 156.051 75.732 156.645C77.1983 157.238 78.81 157.813 80.328 157.368C81.846 156.923 82.9656 154.957 82.001 153.704C88.4893 151.814 95.1948 150.767 101.951 150.591C102.473 150.526 103.001 150.626 103.462 150.878C104.342 151.487 104.11 152.803 104.063 153.872C104.016 154.94 104.849 156.343 105.805 155.862C104.68 156.836 105.642 158.669 106.721 159.694C107.799 160.718 109.1 162.131 108.439 163.463C108.267 163.811 107.974 164.089 107.809 164.44C107.319 165.475 108.096 166.683 109.013 167.371C109.93 168.058 111.053 168.539 111.69 169.491C112.327 170.444 112.038 172.111 110.899 172.244L107.662 168.138C106.556 169.284 105.798 170.719 105.475 172.277C108.908 175.08 109.424 180.785 106.55 184.157C105.082 185.88 102.993 186.928 101.17 188.272C99.3476 189.616 97.661 191.53 97.6656 193.793C97.6735 197.703 97.3536 201.335 98.8205 204.96C101.525 211.644 104.648 218.151 108.171 224.443C109.095 226.096 110.291 227.907 112.165 228.191C109.797 222.433 107.665 216.585 105.769 210.648C107.004 210.653 108.431 210.751 109.154 211.75C109.754 212.577 109.625 213.702 109.811 214.706C110.048 215.678 110.443 216.606 110.98 217.451L122.289 237.57C123.226 239.238 124.302 241.029 126.093 241.704C127.239 242.136 128.564 242.055 129.618 242.676C130.445 243.164 131.002 244.029 131.844 244.488C134.226 245.786 137.539 243.296 139.765 244.846C140.402 245.289 140.807 245.993 141.393 246.5C143.449 248.279 146.822 247.089 149.196 248.416C150.726 249.271 151.518 250.981 152.334 252.531C154.378 256.412 157.685 260.215 162.065 260.524C163.441 260.621 164.847 260.361 166.191 260.666C167.536 260.972 168.86 262.144 168.644 263.505C168.274 265.838 169.428 268.392 169.118 270.733C168.554 274.998 162.497 276.873 161.977 281.143C161.863 282.078 162.041 283.043 161.818 283.959C161.545 285.08 160.701 285.994 160.402 287.109C159.834 289.222 161.349 291.324 163.014 292.746C164.679 294.168 166.666 295.393 167.576 297.383C168.538 299.486 168.065 301.939 168.378 304.23C169.061 309.232 173.387 312.94 177.839 315.331C179.195 316.06 180.651 316.765 181.529 318.029C182.675 319.678 182.561 321.853 182.943 323.823C183.88 328.65 187.949 332.627 188.064 337.543C188.146 341.036 186.202 344.206 185.04 347.502C183.951 350.66 183.557 354.016 183.885 357.34C184.213 360.665 185.255 363.879 186.939 366.765C187.808 368.23 188.847 369.612 189.462 371.2C190.559 374.035 190.203 377.258 191.214 380.124C192.551 383.914 196.225 387.044 195.874 391.046C197.541 394.506 201.225 396.206 204.928 397.235L211.566 399.081C212.837 399.434 214.165 399.79 215.459 399.534C216.753 399.279 217.988 398.205 217.955 396.888C214.7 396.155 211.34 395.375 208.657 393.394C205.974 391.413 204.136 387.885 205.154 384.711C205.626 383.24 206.63 381.54 205.675 380.324C205.129 379.628 204.129 379.446 203.512 378.811C202.551 377.82 202.881 376.155 203.573 374.961C204.264 373.766 205.263 372.698 205.542 371.346C205.683 370.59 205.589 369.809 205.273 369.108C204.956 368.407 204.433 367.819 203.773 367.423C205.003 366.959 206.123 366.242 207.058 365.317C207.922 364.332 208.321 362.813 207.641 361.692C209.66 361.948 212.042 362.073 213.367 360.531C214.425 359.3 214.353 357.459 213.935 355.891C213.517 354.323 212.81 352.8 212.788 351.178C217.444 351.398 222.11 351.24 226.74 350.705C226.071 348.453 224.549 346.55 222.498 345.399C224.595 345.045 226.506 342.537 227.168 340.518C227.831 338.5 227.662 336.301 227.252 334.217C227.095 333.68 227.073 333.113 227.189 332.566C227.426 331.814 228.165 331.355 228.849 330.963L239.258 324.992C239.879 324.682 240.442 324.266 240.922 323.765C242.013 322.486 241.851 320.554 241.293 318.969C240.734 317.384 239.84 315.894 239.625 314.227C238.982 309.243 244.323 305.667 246.126 300.976C246.833 299.135 246.978 297.133 247.114 295.166C247.261 293.053 247.272 290.599 245.648 289.237C244.091 287.932 241.658 288.223 240.029 287.009C238.535 285.896 238.019 283.734 236.388 282.835C234.906 282.018 233.047 282.538 231.399 282.154C228.497 281.478 226.671 278.137 223.707 277.827C222.034 277.653 220.142 278.469 218.771 277.497C217.563 276.64 217.515 274.917 217.285 273.455C216.882 271.183 215.792 269.089 214.161 267.455C212.53 265.821 210.437 264.725 208.164 264.315C206.44 264.039 204.563 264.144 203.096 263.198C201.611 262.239 200.93 260.445 199.763 259.118C197.883 256.979 194.921 256.219 192.147 255.568L180.862 252.918C178.859 252.448 176.277 252.198 175.202 253.951C174.884 254.618 174.659 255.326 174.533 256.054C174.13 257.372 173.319 258.528 172.217 259.356C171.115 260.185 169.779 260.643 168.4 260.665C167.454 259.054 165.922 257.87 164.123 257.36C162.979 257.041 161.754 257.006 160.663 256.537C160.068 256.247 159.539 255.84 159.108 255.339C158.677 254.838 158.353 254.254 158.156 253.624C157.958 252.993 157.892 252.329 157.96 251.672C158.029 251.015 158.23 250.379 158.554 249.803C159.204 248.646 159.455 247.307 159.269 245.993C159.082 244.679 158.467 243.464 157.52 242.533C155.601 240.813 152.825 240.397 150.251 240.569C149.578 239.1 150.704 237.443 151.919 236.376C153.133 235.309 154.607 234.259 154.872 232.665C155.288 230.158 152.085 228.254 149.653 229.001C147.221 229.749 145.669 232.108 144.643 234.434C144.054 235.768 143.554 237.173 142.625 238.298C141.697 239.424 140.201 240.229 138.787 239.868C136.784 239.357 136.011 236.981 135.568 234.964C134.973 232.259 134.375 229.516 134.5 226.75C134.624 223.983 135.558 221.142 137.601 219.269C140.93 216.216 146.036 216.516 150.528 217.003C149.467 215.808 149.729 213.795 150.865 212.671C151.464 212.139 152.185 211.761 152.964 211.57C153.742 211.379 154.556 211.38 155.334 211.574C156.688 211.856 157.907 212.584 158.796 213.642C160.073 215.196 160.436 217.295 161.401 219.06C162.366 220.825 164.535 222.33 166.311 221.383C167.845 220.565 168.089 218.441 167.707 216.747C167.325 215.052 166.514 213.405 166.653 211.674C166.916 208.371 170.345 206.382 173.37 205.022C176.395 203.661 179.859 201.832 180.338 198.553C180.355 197.911 180.476 197.276 180.697 196.673C181.033 196.141 181.499 195.703 182.052 195.401C190.881 189.573 199.857 183.674 209.948 180.49C210.473 180.324 210.535 180.508 211.07 180.378C211.819 179.946 211.323 178.75 210.605 178.268C209.887 177.787 208.927 177.417 208.745 176.573C208.611 175.952 208.977 175.342 209.072 174.715C209.306 173.172 207.458 171.747 206.023 172.364C205.213 171.292 206.817 170.046 208.113 169.689C212.008 168.619 216.006 167.966 220.039 167.744C220.504 167.67 220.981 167.751 221.396 167.974C222.073 168.443 221.987 169.518 221.507 170.187C221.027 170.856 220.28 171.276 219.682 171.842C219.028 172.478 218.562 173.281 218.334 174.163C218.106 175.046 218.125 175.974 218.389 176.846C220.495 177.916 222.784 179.017 225.116 178.64C227.448 178.263 229.518 175.646 228.421 173.556C227.401 171.61 224.335 171.171 223.807 169.038C223.19 166.541 226.73 164.319 225.933 161.873C225.583 160.802 224.514 160.171 223.694 159.398C222.725 158.449 222.066 157.23 221.803 155.901C221.541 154.572 221.687 153.194 222.222 151.949C220.886 152.184 219.513 152.095 218.218 151.69C216.923 151.286 215.744 150.577 214.78 149.623C213 147.829 211.58 144.999 209.053 145.079C206.733 145.153 204.735 147.855 202.567 147.031C202.033 146.828 201.47 146.415 200.953 146.657C200.784 146.767 200.642 146.914 200.538 147.086C200.433 147.259 200.37 147.454 200.352 147.655C199.801 150.286 200.749 153.285 199.313 155.559C197.75 158.034 194.135 158.377 192.24 160.609C191.212 161.821 190.813 163.453 189.868 164.73C188.922 166.008 186.916 166.82 185.781 165.707C186.339 164.562 186.491 163.262 186.213 162.019C185.935 160.777 185.244 159.665 184.251 158.866C183.198 158.18 182.063 157.628 180.872 157.224C179.541 156.662 178.275 155.957 177.096 155.123C176.506 154.767 176.026 154.254 175.71 153.641C175.461 152.874 175.494 152.043 175.805 151.299C176.38 149.652 177.395 148.192 178.74 147.079C180.085 145.966 181.709 145.24 183.436 144.981C184.947 144.776 186.705 144.848 187.705 143.699C188.233 143.091 188.511 142.171 189.279 141.924C189.77 141.826 190.28 141.888 190.732 142.103L196.37 144.085C196.999 144.369 197.692 144.483 198.379 144.417C198.719 144.371 199.03 144.198 199.249 143.933C199.467 143.668 199.577 143.33 199.556 142.987C199.376 142.052 197.935 141.603 198.066 140.66C198.14 140.355 198.304 140.078 198.538 139.868C200.573 137.705 203.061 136.018 205.825 134.928C208.589 133.838 211.56 133.371 214.526 133.562C215.237 134.73 214.112 136.112 213.175 137.109C212.239 138.105 211.486 139.886 212.619 140.653C213.083 140.889 213.599 141.005 214.12 140.99C215.508 141.178 216.857 141.587 218.116 142.201C220.064 143.048 221.975 143.974 223.848 144.981C223.683 143.747 223.525 142.447 223.993 141.293C224.461 140.14 225.792 139.235 226.954 139.684C228.075 140.117 228.649 141.598 229.843 141.734C231.434 141.915 232.063 139.566 231.398 138.11C230.733 136.654 229.416 135.435 229.306 133.839C229.232 132.762 229.643 131.426 228.781 130.774C228.475 130.578 228.127 130.456 227.765 130.418L206.257 126.464C204.979 126.23 203.134 126.41 203.077 127.706C203.046 128.429 203.693 129.144 203.406 129.81C203.1 130.519 202.096 130.454 201.364 130.705C200.229 131.095 199.659 132.442 199.768 133.636C199.968 134.822 200.428 135.95 201.115 136.938C199.716 136.353 197.598 136.246 196.199 135.661Z" fill="#405487"/>
<path d="M179.037 117.425C177.681 116.977 176.22 116.956 174.851 117.366C173.482 117.775 172.273 118.595 171.387 119.714C171.033 120.18 170.735 120.822 171.032 121.326C171.457 122.049 172.54 121.763 173.338 121.505C174.512 121.086 175.789 121.056 176.982 121.418C177.732 121.675 178.402 122.13 179.155 122.377C179.522 122.53 179.923 122.581 180.317 122.523C180.71 122.466 181.08 122.303 181.387 122.051C181.904 121.525 181.937 120.706 181.938 119.969C181.973 119.722 181.954 119.471 181.88 119.232C181.806 118.994 181.68 118.776 181.51 118.592C181.209 118.418 180.87 118.318 180.522 118.301C179.743 118.157 179.039 117.745 178.53 117.138" fill="#405487"/>
<path d="M186.793 115.269C186.49 115.252 186.187 115.314 185.914 115.448C185.642 115.582 185.408 115.784 185.236 116.034C185.064 116.285 184.959 116.575 184.932 116.877C184.905 117.18 184.956 117.484 185.081 117.761C186.013 118.015 186.987 118.078 187.944 117.948C188.421 117.873 188.866 117.66 189.222 117.334C189.579 117.008 189.83 116.584 189.945 116.115C188.818 116.32 187.655 116.098 186.683 115.493" fill="#405487"/>
<path d="M212.814 111.667C210.277 112.206 207.812 113.042 205.471 114.158C206.575 114.582 207.513 115.348 208.147 116.345C208.782 117.341 209.079 118.514 208.995 119.692C208.896 120.144 208.907 120.614 209.028 121.06C209.298 121.713 210.079 121.958 210.766 122.126C212 122.501 213.289 122.665 214.578 122.612C215.223 122.578 215.849 122.384 216.4 122.048C216.951 121.712 217.409 121.244 217.734 120.686C217.92 120.157 218.14 119.639 218.39 119.137C220.036 116.632 224.928 119.661 226.696 117.24C227.319 116.387 227.262 115.103 228.074 114.428C228.494 114.133 228.98 113.948 229.49 113.888C233.045 113.182 236.637 112.671 240.248 112.357C241.959 112.209 244.189 111.595 244.203 109.88C237.758 108.616 231.076 109.513 225.195 112.434C223.076 113.494 220.273 115.724 218.232 114.318C217.468 113.792 217.506 112.375 216.454 111.784C215.379 111.179 213.955 111.425 212.814 111.667Z" fill="#405487"/>
<path d="M233.89 115.604L236.915 116.184C236.358 116.16 235.802 116.254 235.285 116.461C234.767 116.668 234.3 116.982 233.914 117.384C233.528 117.785 233.232 118.265 233.046 118.79C232.86 119.314 232.788 119.873 232.835 120.428C235.668 121.373 238.757 120.453 241.741 120.579C244.726 120.704 248.198 122.833 247.689 125.773C247.535 126.662 247.02 127.55 247.288 128.412C247.475 129.016 248.008 129.444 248.309 130C248.937 131.16 248.435 132.626 247.643 133.679C246.851 134.733 245.787 135.573 245.092 136.693C243.363 139.478 244.345 143.078 245.375 146.189C245.673 147.365 246.223 148.462 246.987 149.404C248.513 151.025 250.999 151.166 253.226 151.198C254.847 151.222 256.704 151.142 257.729 149.887C259.067 148.25 258.132 145.695 259.013 143.773C259.813 142.027 261.852 141.278 263.699 140.747C267.083 139.774 270.531 138.947 273.73 137.477C277.703 135.652 281.415 132.808 285.782 132.573C287.007 132.507 288.262 132.652 289.442 132.316C290.622 131.981 291.743 130.962 291.653 129.74C291.577 128.696 290.693 127.93 290.002 127.142C289.31 126.355 288.768 125.145 289.403 124.312L300.847 122.177C300.036 119.969 299.404 117.061 301.268 115.623C301.941 115.105 302.842 114.898 303.414 114.271C304.39 113.202 303.899 111.361 302.773 110.453C301.646 109.544 300.123 109.333 298.679 109.213C293.661 108.797 288.614 109.072 283.586 109.347C273.758 109.885 263.929 110.423 254.101 110.961C252.122 111.07 249.838 110.904 248.023 111.578C246.487 112.149 245.395 113.197 243.638 113.565C240.394 114.245 236.825 113.785 233.89 115.604Z" fill="#405487"/>
<path d="M288.087 139.487C287.778 139.439 287.463 139.51 287.206 139.687C287.036 139.874 286.935 140.113 286.919 140.365C286.724 141.477 286.957 142.623 287.571 143.571C287.884 144.036 288.315 144.409 288.821 144.651C289.327 144.894 289.889 144.996 290.448 144.949C291.81 144.775 292.814 143.614 294.066 143.048C295.996 142.176 304.194 140.816 298.523 137.756C296.569 136.702 295.306 137.633 293.766 138.327C292.014 139.222 290.05 139.624 288.087 139.487Z" fill="#405487"/>
<path d="M337.752 113.876C337.09 114.146 336.536 114.628 336.177 115.246C336.012 115.559 335.973 115.925 336.07 116.266C336.166 116.607 336.391 116.898 336.696 117.079C336.943 117.168 337.205 117.21 337.468 117.201L340.161 117.281C341.304 117.316 342.733 117.559 343.04 118.66C343.268 119.477 342.758 120.527 343.374 121.112C343.638 121.316 343.956 121.44 344.29 121.468C345.177 121.696 346.103 121.726 347.002 121.556C348.961 121.031 347.932 119.837 348.549 118.774C349.493 117.147 349.329 118.132 350.993 117.199C352.221 116.511 353.808 115.262 352.783 113.507C351 110.455 340.383 112.565 337.752 113.876Z" fill="#405487"/>
<path d="M390.89 112.342L389.327 112.55C385.802 113.02 382.256 113.494 378.861 114.552C380.331 115.132 381.873 115.51 383.445 115.675C384.31 115.717 385.169 115.839 386.012 116.039C387.512 116.485 389.023 117.637 390.472 117.047C391.37 116.681 391.663 115.747 392.407 115.252C392.921 114.91 394.87 114.357 395.088 114.012C396.849 111.222 392.244 112.161 390.89 112.342Z" fill="#405487"/>
<path d="M397.755 119.438C395.666 120.605 393.729 122.022 391.986 123.658C391.251 124.348 390.501 125.205 390.567 126.21C390.656 127.545 392.08 128.32 393.314 128.842L398.311 130.955C398.918 130.102 398.363 128.923 397.736 128.085C397.11 127.246 396.365 126.276 396.642 125.266C396.958 124.115 398.364 123.722 399.543 123.524C401.464 123.2 406.646 123.226 406.023 120.134C405.29 116.491 399.683 118.362 397.755 119.438Z" fill="#405487"/>
<path d="M396.75 325.626C396.274 327.002 396.229 328.622 397.052 329.823C397.975 331.171 399.823 331.674 401.422 331.332C403.015 330.909 404.434 329.997 405.48 328.726C406.437 327.661 407.224 326.455 407.814 325.151C408.637 323.119 409.218 320.997 409.544 318.829L411.096 310.692C411.442 308.873 411.429 303.298 408.082 305.115C407.168 305.611 405.052 309.529 404.093 310.64C402.367 312.642 402.138 314.585 401.229 317.011C400.091 320.05 397.802 322.583 396.75 325.626Z" fill="#405487"/>
<path d="M573.5 367.266C572.405 366.839 571.342 366.334 570.32 365.754C569.295 368.568 568.75 371.534 568.708 374.529L576.201 370.294C577.328 369.657 578.606 368.772 578.581 367.478C578.592 367.319 578.559 367.159 578.486 367.017C578.413 366.874 578.303 366.754 578.167 366.668C578.001 366.602 577.819 366.58 577.642 366.607C576.531 366.699 575.518 367.245 574.47 367.625C573.422 368.005 572.196 368.206 571.234 367.642" fill="#405487"/>
<path d="M613.027 369.78C612.205 370.004 611.401 370.292 610.624 370.641C608.905 371.515 607.735 373.175 606.188 374.326C604.707 375.427 602.924 376.032 601.175 376.62C600.66 377.074 600.896 377.99 601.455 378.389C602.056 378.73 602.745 378.885 603.434 378.833C605.252 378.873 607.167 378.891 608.76 378.014C609.657 377.432 610.496 376.767 611.267 376.026C613.129 374.475 615.364 373.451 617.578 372.462C618.383 372.158 619.128 371.713 619.777 371.148C621.168 369.78 621.266 367.668 619.26 367.203C617.64 366.826 614.57 369.281 613.027 369.78Z" fill="#405487"/>
<path d="M630.492 358.385C630.582 357.444 630.456 356.494 630.125 355.608C629.794 354.722 629.265 353.922 628.579 353.27C628.559 355.154 628.501 357.161 627.44 358.719C626.685 359.829 625.499 360.579 624.671 361.636C623.843 362.694 623.475 364.37 624.447 365.297C625.068 365.769 625.824 366.03 626.604 366.04C628.538 366.267 630.776 366.394 632.132 364.998C632.872 364.237 633.233 363.109 634.135 362.549C634.472 362.408 634.772 362.193 635.014 361.921C635.387 361.329 634.795 360.549 634.128 360.336C633.461 360.122 632.726 360.223 632.056 360.02C631.386 359.817 630.772 359.065 631.115 358.456" fill="#405487"/>
<path d="M599.451 289.311C598.437 289.557 597.386 289.619 596.35 289.493C594.629 289.177 593.289 287.882 591.899 286.819C588.595 284.306 584.579 282.905 580.427 282.816C576.651 282.744 572.839 283.766 569.13 283.053C569.372 284.4 570.526 285.409 571.756 286.009C572.987 286.61 574.345 286.912 575.582 287.5C577.562 288.45 579.133 290.083 580.006 292.097C580.404 293.025 580.654 294.035 581.258 294.846C582.491 296.503 584.828 296.867 586.89 296.732C589.58 296.555 592.388 295.782 594.89 296.783C596.804 297.549 598.174 299.222 599.772 300.523C601.37 301.824 603.621 302.789 605.456 301.851C603.55 301.234 601.891 300.026 600.721 298.401C599.552 296.776 598.933 294.821 598.954 292.82C600.754 292.985 605.938 292.921 605.659 289.867C605.422 287.278 600.997 289.031 599.451 289.311Z" fill="#405487"/>
<path d="M575.907 310.372C576.227 308.621 577.975 307.075 577.43 305.381C577.054 304.209 575.694 303.631 574.462 303.602C573.23 303.573 572.02 303.939 570.789 303.974C569.987 303.931 569.183 303.943 568.383 304.008C565.938 304.409 564.432 306.969 562.128 307.879C560.727 308.432 559.153 308.326 557.696 308.709C554.389 309.577 552.296 312.699 549.984 315.215C546.249 319.264 541.382 322.098 536.015 323.352C534.134 323.787 532.113 324.065 530.618 325.285C528.639 326.9 528.152 329.67 527.711 332.185C526.495 339.13 524.635 345.947 522.157 352.549L530.01 353.551C531.503 353.741 533.05 353.928 534.489 353.486C535.534 353.092 536.525 352.565 537.435 351.919C540.933 349.75 544.847 348.338 548.925 347.776C550.982 347.494 553.138 347.442 555.068 348.206C556.998 348.969 558.653 350.701 558.815 352.768C559.65 352.508 560.539 352.48 561.388 352.687C562.238 352.893 563.015 353.326 563.637 353.939C564.867 355.191 565.672 356.796 565.939 358.529C566.146 359.602 566.353 360.888 567.35 361.338C568.163 361.705 569.096 361.31 569.986 361.239C573.005 360.998 575.511 364.514 578.478 363.908C581.661 363.259 582.443 358.498 585.548 357.544C587.331 356.997 589.832 357.663 590.686 356.006C591.439 354.546 589.937 352.86 590.092 351.225C590.283 349.212 592.661 348.357 594.494 347.498C600.813 344.536 603.812 336.041 600.75 329.775C598.936 326.062 595.365 323.14 594.706 319.062C594.199 315.924 595.437 312.265 593.434 309.795C592.415 308.539 590.69 307.845 590.084 306.346C589.702 305.402 589.855 304.332 589.65 303.335C589.445 302.338 588.574 301.295 587.588 301.553C584.727 302.304 583.814 311.131 582.283 313.276C579.954 316.536 575.174 314.388 575.907 310.372Z" fill="#405487"/>
<path d="M523.026 292.646C522.048 292.372 520.98 292.102 520.043 292.494C519.107 292.885 518.56 294.259 519.311 294.94C525.193 294.712 531.111 294.484 536.943 295.282C543.663 296.201 550.313 298.478 557.062 297.808C553.206 296.672 549.288 295.764 545.326 295.088L538.719 293.828C536.946 293.457 535.155 293.181 533.354 293C529.584 292.689 526.731 293.684 523.026 292.646Z" fill="#405487"/>
<path d="M528.914 272.185C528.426 272.144 527.821 272.109 527.568 272.529C527.327 272.929 527.603 273.459 527.473 273.908C527.296 274.522 526.491 274.678 525.857 274.595C525.223 274.511 524.537 274.311 523.976 274.617C523.691 274.811 523.477 275.092 523.365 275.419C523.254 275.745 523.252 276.098 523.359 276.426C523.589 277.076 523.96 277.668 524.446 278.158C525.277 279.203 526.224 280.152 527.268 280.985C529.29 282.475 532.029 283.193 533.302 285.357C533.482 285.776 533.758 286.147 534.108 286.44C534.719 286.827 535.516 286.533 536.174 286.232L538.481 285.179C538.897 285.03 539.268 284.778 539.56 284.447C540.087 283.733 539.763 282.717 539.321 281.948C538.878 281.178 538.312 280.382 538.407 279.5C538.576 277.927 540.601 277.325 541.434 275.979C542.273 274.623 541.727 272.875 541.823 271.283C541.937 269.422 543.108 267 541.223 265.609C539.622 264.427 538.092 265.519 536.942 266.824C534.517 269.576 533.371 272.557 528.914 272.185Z" fill="#405487"/>
<path d="M542.917 244.371C543.704 245.877 545.346 246.776 546.205 248.243C547.136 249.833 547.03 251.887 548.04 253.428C549.076 255.009 551.161 255.849 551.742 257.647C552.377 259.61 550.937 261.996 552.085 263.712C552.299 263.992 552.569 264.225 552.877 264.396C553.186 264.567 553.527 264.672 553.879 264.704C554.23 264.736 554.585 264.695 554.919 264.583C555.254 264.472 555.562 264.292 555.824 264.055C556.307 263.529 556.566 262.835 556.545 262.121C556.524 261.407 556.225 260.73 555.71 260.233C555.031 259.614 554.056 259.347 553.489 258.624C553.193 258.207 552.996 257.729 552.913 257.225C552.604 255.771 552.653 254.264 553.057 252.834C553.209 252.471 553.248 252.07 553.168 251.685C552.913 250.944 551.907 250.891 551.202 250.547C549.6 249.766 549.639 247.508 549.919 245.749C549.733 246.92 545.557 244.929 545.12 244.266C544.251 242.948 544.724 240.407 544.552 238.951C542.677 239.854 541.954 242.53 542.917 244.371Z" fill="#405487"/>
<path d="M500.853 267.545C500.082 266.684 498.921 265.782 497.888 266.302C497.1 266.698 496.883 267.788 497.192 268.613C497.569 269.416 498.148 270.106 498.873 270.615C501.026 272.389 503.345 273.99 505.223 276.051C508.585 279.741 510.366 284.719 514.021 288.118C514.756 288.907 515.729 289.432 516.792 289.616C517.857 289.715 519.053 289.034 519.175 287.973C519.276 287.098 518.666 286.316 518.069 285.668C516.649 284.125 515.095 282.705 513.754 281.093C513.135 280.474 512.746 279.662 512.651 278.792C512.644 277.924 513.436 277.015 514.278 277.23C513.254 276.969 512.495 275.265 510.992 274.945C509.736 274.677 509.432 275.454 507.937 274.813C505.086 273.592 502.849 269.778 500.853 267.545Z" fill="#405487"/>
<path d="M567.843 183.644C567.026 183.401 566.222 183.114 565.435 182.784C563.318 182.15 560.517 183.704 560.799 185.893C560.987 187.348 562.342 188.328 563.091 189.59C564.201 191.461 563.905 193.835 563.322 195.93C563.178 196.579 562.906 197.193 562.521 197.734C561.982 198.306 561.338 198.769 560.624 199.097C557.765 200.698 555.244 202.837 553.2 205.396C552.978 205.633 552.823 205.924 552.752 206.24C552.651 206.98 553.395 207.518 553.816 208.135C554.75 209.504 554.075 211.347 554.167 213.002C554.153 213.236 554.199 213.469 554.3 213.681C554.402 213.892 554.556 214.074 554.747 214.209C555.311 214.495 555.978 214.01 556.283 213.457C557.296 211.624 556.533 208.682 558.433 207.798C558.793 207.631 559.228 207.561 559.468 207.245C559.849 206.745 559.482 206.004 559.674 205.406C559.964 204.509 561.193 204.468 562.137 204.508C563.762 204.576 565.387 204.36 566.938 203.87C567.546 203.725 568.099 203.406 568.527 202.95C569.095 202.242 569.045 201.236 568.931 200.335C568.363 195.848 566.939 191.51 564.738 187.556C566.407 187.769 568.223 187.954 569.664 187.085C570.47 186.598 571.437 185.143 571.037 184.153C570.405 182.587 569.262 183.905 567.843 183.644Z" fill="#405487"/>
<path d="M353.855 208.326C354.055 209.396 354.252 210.523 353.901 211.553C353.549 212.584 352.445 213.445 351.402 213.129C350.593 212.884 350.125 212.071 349.55 211.452C346.354 208.005 339.143 210 337.168 205.737C336.362 203.996 336.91 201.912 336.36 200.075C336.013 199.013 335.323 198.096 334.399 197.469C333.474 196.841 332.366 196.538 331.25 196.608C330.233 196.754 329.242 197.05 328.31 197.484C322.067 199.981 315.513 201.619 308.828 202.351C307.558 202.428 306.301 202.657 305.085 203.031C302.34 204.025 300.465 206.567 299.13 209.16C297.795 211.754 296.81 214.562 295.021 216.866C293.14 219.288 290.505 220.984 288.046 222.818C287.099 223.427 286.311 224.253 285.746 225.226C285.213 226.319 285.243 227.59 285.284 228.805L285.787 243.56C285.851 245.457 285.932 247.423 286.783 249.121C287.845 251.242 289.943 252.631 291.398 254.505C292.883 256.43 293.657 258.809 293.588 261.238C293.557 262.215 293.46 263.37 294.222 263.984C294.685 264.284 295.227 264.439 295.779 264.431L315.762 266.064C319.277 266.352 323.172 266.824 325.467 269.499C326.551 270.761 327.421 272.577 329.08 272.712C329.791 272.77 330.484 272.479 331.195 272.422C332.991 272.28 334.569 273.642 335.564 275.141C337.071 277.426 337.755 280.155 337.504 282.88C337.34 284.591 336.809 286.253 336.695 287.968C336.259 294.491 341.796 300.158 341.903 306.695C341.966 310.54 340.139 314.132 338.357 317.541C341.233 321.892 338.878 327.686 340.023 332.773C341.109 337.598 345.138 341.376 346.141 346.219C346.601 348.437 346.628 351.165 348.585 352.307C349.444 352.726 350.396 352.916 351.35 352.86C357.104 352.929 362.793 351.635 367.95 349.086C370.371 347.886 372.88 346.095 373.302 343.429C373.643 341.279 372.552 338.875 373.663 337.002C374.972 334.795 378.326 334.97 380.252 333.273C383.377 330.521 380.94 325.271 382.206 321.306C383.344 317.742 387.262 315.848 389.204 312.65C389.969 311.274 390.517 309.789 390.83 308.248C391.72 304.563 392.274 300.805 392.485 297.02C392.537 294.721 392.707 292.426 392.994 290.144C395.087 277.151 407.947 268.451 412.123 255.97C412.521 254.778 412.709 253.19 411.647 252.516C411.017 252.215 410.303 252.141 409.625 252.304L400.413 253.464C399.269 253.608 398.056 253.743 397.006 253.268C395.955 252.794 395.202 251.466 395.759 250.458C397.324 247.627 394.105 244.05 392.676 241.149C388.825 233.339 384.24 225.911 378.981 218.967C378.645 218.61 378.434 218.153 378.381 217.666L380.995 217.752C380.113 214.59 378.656 211.128 375.58 209.971C373.846 209.319 371.926 209.545 370.077 209.646C364.779 209.935 359.099 209.136 353.855 208.326Z" fill="#405487"/>
<path d="M370.081 137.05C371.467 138.521 373.021 140.08 375.027 140.336C378.57 140.789 381.117 137.13 382.739 133.951C382.799 134.761 383.173 135.516 383.782 136.055C384.39 136.594 385.186 136.875 385.998 136.837C386.873 136.69 387.708 136.365 388.45 135.88C395.47 132.049 403.332 130.019 411.331 129.972C411.254 129.367 411.405 128.755 411.753 128.254C412.102 127.753 412.624 127.398 413.218 127.259C414.845 126.937 416.31 128.341 417.094 129.8C417.879 131.259 418.368 132.95 419.615 134.042C420.861 135.134 423.274 135.087 423.767 133.505C424.24 131.987 422.656 130.692 421.34 129.797C420.025 128.902 418.638 127.246 419.524 125.925C426.245 124.439 433.008 122.947 439.885 122.652C441.056 122.693 442.223 122.492 443.313 122.062C444.362 121.548 445.195 120.381 444.913 119.249C443.413 119.601 441.841 119.499 440.398 118.956C438.956 118.412 437.708 117.452 436.814 116.197C446.357 115.411 456.507 114.74 464.964 119.225C465.979 121.401 460.806 123.212 462.19 125.175C462.632 125.8 463.516 125.874 464.282 125.888C470.159 125.997 476.07 126.104 481.881 125.218C484.005 124.894 486.149 124.437 488.281 124.699C491.832 125.137 494.87 127.503 498.363 128.275C499.785 128.589 501.379 128.599 502.578 127.773C503.777 126.947 504.292 125.067 503.31 123.993C506.599 120.773 512.058 121.571 516.397 123.112C520.737 124.654 524.848 127.14 529.441 127.483C532.734 127.73 536.073 126.845 539.328 127.407C541.373 127.761 543.276 128.67 545.275 129.228C549.055 130.284 553.054 130.061 556.979 130.112C566.993 130.246 576.898 132.212 586.204 135.912C587.414 136.305 588.523 136.96 589.452 137.829C590.318 138.755 590.76 140.194 590.178 141.32L580.562 139.917C581.468 141.698 583.812 142.002 585.716 142.616C587.619 143.231 589.592 145.33 588.449 146.969C586.386 146.313 584.517 148.373 583.476 150.268C582.434 152.162 581.164 154.432 579.003 154.547C577.068 154.65 574.727 153.005 573.466 154.474C575.208 156.67 576.701 159.053 577.915 161.579C579.161 164.172 580.049 167.44 578.365 169.773C578.1 170.19 577.698 170.501 577.228 170.654C575.852 171.002 574.958 169.321 573.972 168.302C572.728 167.018 570.848 166.654 569.165 166.052C567.481 165.45 565.707 164.266 565.576 162.484C565.494 161.376 566.08 160.346 566.511 159.322C567.236 157.595 567.554 155.725 567.438 153.856C567.344 152.353 566.922 150.789 565.841 149.738C564.76 148.688 562.893 148.355 561.733 149.317C561.191 149.766 560.757 150.484 560.054 150.511C558.811 150.558 557.857 148.395 556.858 149.133C556.975 149.92 556.812 150.723 556.396 151.402C553.413 153.993 548.831 152.897 544.985 153.812C543.156 154.335 541.405 155.099 539.779 156.083C539.17 156.343 538.652 156.777 538.29 157.331C537.81 158.263 538.34 159.456 539.186 160.075C540.083 160.625 541.091 160.969 542.138 161.082C546.826 161.969 551.583 163.342 555.285 166.349C558.986 169.357 561.413 174.329 560.242 178.949L550.996 170.125C551.348 173.83 551.547 177.546 551.594 181.271C551.654 181.998 551.554 182.73 551.301 183.415C550.642 184.869 548.856 185.358 547.29 185.679C546.855 185.762 546.442 185.935 546.078 186.189C545.715 186.442 545.409 186.769 545.182 187.149C544.954 187.529 544.809 187.952 544.757 188.392C544.704 188.832 544.746 189.277 544.878 189.7C545.435 191.51 546.821 192.922 548.091 194.329C549.361 195.735 550.611 197.334 550.777 199.221C550.943 201.108 549.518 203.234 547.626 203.103C546.192 203.004 545.128 201.721 544.516 200.422C543.905 199.123 543.541 197.675 542.622 196.571C539.84 193.23 533.592 194.661 531.1 191.099C530.464 191.819 530.024 192.688 529.82 193.626C529.616 194.564 529.655 195.538 529.934 196.456C531.093 195.731 532.681 196.404 533.552 197.458C534.423 198.511 534.834 199.861 535.518 201.044C536.441 202.641 537.91 204.056 538.039 205.895C538.004 206.59 538.016 207.287 538.074 207.981C538.303 209.095 539.245 209.895 539.899 210.827C541.421 212.994 541.345 215.971 540.365 218.43C539.384 220.888 537.623 222.943 535.878 224.935C532.831 228.414 529.721 231.873 526.108 234.762C525.077 235.587 523.977 236.398 523.335 237.55C522.693 238.703 522.66 240.321 523.646 241.198C522.94 241.233 521.674 241.58 520.968 241.615C520.72 238.786 520.666 235.944 520.807 233.108C518.021 231.772 515.021 235.35 515.381 238.416C515.74 241.482 517.96 243.942 519.541 246.595C520.697 248.534 521.556 250.796 521.17 253.02C520.784 255.244 518.796 257.296 516.545 257.1C512.964 256.788 511.466 251.653 507.919 251.065C507.607 250.992 507.278 251.025 506.986 251.158C506.46 251.446 506.368 252.15 506.339 252.749C506.193 255.689 506.068 258.746 507.217 261.457C508.898 265.423 513.241 268.753 512.33 272.963C507.422 270.684 504.871 265.187 503.712 259.907C502.554 254.627 502.361 249.084 500.284 244.093C498.707 246.111 495.392 244.442 493.952 242.325C492.586 240.317 491.745 237.994 490.419 235.959C489.094 233.925 487.064 232.103 484.636 231.991C482.091 231.873 479.883 233.618 477.942 235.267C476.345 236.622 474.706 238.031 473.773 239.905C472.415 242.631 472.77 245.846 472.705 248.891C472.634 252.182 471.936 255.655 469.69 258.065C467.444 260.475 463.298 261.314 460.82 259.142C459.527 258.008 458.9 256.314 458.343 254.688C455.654 246.85 453.414 238.865 451.635 230.773C451.219 232.62 449.595 235.001 448.044 233.912C447.696 233.62 447.414 233.257 447.217 232.848C444.323 227.949 438.964 225.011 433.55 223.249C428.135 221.487 422.438 220.666 417.084 218.73C414.083 217.644 411.218 216.218 408.543 214.48C407.861 215.481 407.463 216.647 407.39 217.855C407.318 219.063 407.574 220.269 408.132 221.343C409.32 223.444 412.007 224.659 414.308 223.925C415.497 223.546 416.501 222.721 417.681 222.314C418.861 221.907 420.444 222.107 420.96 223.242C421.454 224.329 420.707 225.643 421.077 226.778C421.641 228.505 424.251 228.639 425.163 230.211C425.842 231.381 425.283 232.934 424.314 233.878C423.345 234.822 422.051 235.34 420.868 235.997C417.029 238.13 414.299 241.77 410.944 244.601C407.589 247.433 402.855 249.501 398.857 247.684C399.81 242.864 394.061 239.325 393.003 234.526C392.655 232.947 392.835 231.269 392.338 229.73C391.619 227.501 389.639 225.969 388.015 224.28C386.046 222.21 384.511 219.766 383.502 217.093C382.494 214.421 382.031 211.574 382.142 208.719C382.23 206.736 382.594 204.721 382.142 202.788C381.69 200.855 380.087 198.984 378.102 199.071C373.567 199.271 367.853 199.608 365.474 195.747C364.625 194.369 364.255 192.35 365.483 191.294C366.349 190.55 367.628 190.62 368.765 190.731L378.983 191.735C381.373 191.97 383.957 192.164 386.008 190.916C388.058 189.668 388.947 186.356 387.048 184.888C385.661 183.815 383.175 183.873 382.771 182.167C382.435 180.747 384.01 179.135 383.159 177.948C382.55 177.097 381.179 177.333 380.349 177.971C379.518 178.609 378.915 179.542 377.986 180.025C376.355 180.873 374.407 180.066 372.653 179.518C370.899 178.97 368.547 178.923 367.696 180.551C366.744 182.371 368.54 184.756 367.596 186.579C366.347 188.99 362.119 187.618 360.365 189.692C358.353 192.072 361.734 195.62 361.056 198.661C360.189 199.089 359.227 199.286 358.261 199.232C357.296 199.178 356.361 198.874 355.549 198.352C354.749 197.809 354.112 197.059 353.705 196.183C353.298 195.307 353.136 194.338 353.237 193.377C353.405 192.009 354.119 190.613 353.64 189.321C353.254 188.276 352.203 187.654 351.227 187.115L341.297 181.634C340.375 183.342 341.541 185.46 342.998 186.743C344.456 188.026 346.282 188.992 347.239 190.681C347.845 191.851 347.981 193.207 347.619 194.474C347.257 195.74 346.425 196.821 345.292 197.495C345.15 197.593 344.989 197.659 344.819 197.689C344.649 197.718 344.474 197.711 344.308 197.667C344.149 197.574 344.011 197.45 343.901 197.303C343.792 197.155 343.713 196.988 343.669 196.809C341.917 192.331 339.287 187.916 335.081 185.577C330.876 183.237 324.833 183.718 322.075 187.659C321.42 188.595 320.98 189.662 320.41 190.651C317.378 195.909 310.879 198.399 304.806 198.236C304.212 198.269 303.621 198.13 303.104 197.837C302.123 197.16 302.167 195.723 302.317 194.541L302.955 189.526C303.083 188.519 303.268 187.406 304.066 186.777C305.191 185.891 306.814 186.45 308.246 186.43C309.332 186.379 310.375 185.996 311.235 185.333C312.096 184.67 312.731 183.759 313.055 182.723C313.344 181.677 313.343 180.572 313.05 179.527C312.757 178.482 312.184 177.537 311.393 176.793C310.736 176.177 309.855 175.403 310.202 174.573C310.34 174.343 310.527 174.146 310.75 173.997C310.972 173.847 311.225 173.748 311.49 173.706C314.064 172.96 316.783 172.764 319.313 171.883C321.843 171.003 324.297 169.201 324.897 166.592C325.08 165.793 325.164 164.825 325.883 164.428C326.244 164.276 326.631 164.197 327.022 164.196C328.394 164.001 329.643 163.3 330.524 162.231C331.404 161.162 331.852 159.803 331.78 158.421C332.992 157.575 334.691 158.197 335.864 159.098C337.038 159.998 338.073 161.187 339.501 161.575C342.161 162.298 344.732 159.946 347.489 159.935C348.648 159.93 349.849 160.34 350.939 159.947C352.045 159.549 352.706 158.45 353.554 157.637C354.403 156.825 355.892 156.33 356.676 157.205L356.008 152.268C357.352 152.607 358.753 152.655 360.117 152.409C361.481 152.162 362.777 151.627 363.917 150.84L355.292 147.929C354.992 147.854 354.715 147.706 354.486 147.499C353.859 146.824 354.481 145.773 354.991 145.007C356.211 143.173 356.416 140.152 354.41 139.239C353.041 138.616 351.469 139.364 350.155 140.096L343.86 143.601C343.66 144.797 345.124 145.474 346.03 146.279C346.579 146.766 346.967 147.407 347.144 148.119C347.321 148.83 347.278 149.578 347.022 150.265C346.765 150.952 346.306 151.545 345.706 151.967C345.106 152.389 344.392 152.619 343.658 152.628C344.072 153.166 344.36 153.791 344.5 154.455C344.641 155.12 344.629 155.807 344.467 156.467L340.232 156.771C339.757 156.867 339.263 156.77 338.858 156.503C338.405 156.102 338.467 155.397 338.362 154.801C338.108 153.363 336.698 152.355 335.259 152.096C333.82 151.838 332.348 152.169 330.923 152.496C330.317 152.714 329.653 152.699 329.059 152.453C328.718 152.232 328.459 151.906 328.321 151.524C327.696 150.011 328.28 148.232 329.284 146.938C330.287 145.644 331.661 144.699 332.895 143.621C335.845 141.036 338.012 137.678 339.152 133.927C341.484 132.951 343.898 131.626 346.229 130.65C349.824 128.832 353.855 128.052 357.869 128.397L365.765 128.548C368.103 128.593 370.504 128.65 372.665 129.54C374.827 130.43 376.726 132.355 376.875 134.686C376.92 134.95 376.898 135.221 376.809 135.473C376.721 135.726 376.569 135.952 376.369 136.13C376.064 136.296 375.718 136.374 375.371 136.355C373.191 136.431 372.261 136.974 370.081 137.05Z" fill="#405487"/>
<path d="M307.145 161.767C307.454 161.475 307.676 161.104 307.787 160.695C307.898 160.285 307.894 159.853 307.776 159.446C307.025 159.156 306.208 159.082 305.418 159.231C304.627 159.38 303.894 159.747 303.3 160.29C302.833 160.762 302.43 161.295 302.102 161.873C301.064 163.563 300.146 165.583 300.748 167.473C300.797 167.679 300.886 167.873 301.012 168.044C301.137 168.215 301.295 168.36 301.477 168.469C301.746 168.577 302.037 168.622 302.326 168.602C303.469 168.6 304.611 168.53 305.746 168.391C306.442 168.306 307.252 168.11 307.521 167.462C307.875 166.611 307.018 165.648 307.268 164.761C307.432 164.364 307.681 164.008 307.998 163.717C308.154 163.571 308.275 163.39 308.35 163.189C308.424 162.988 308.451 162.772 308.428 162.559C308.327 162.143 307.689 161.907 307.459 162.268" fill="#405487"/>
<path d="M313.073 154.092C312.057 153.859 311.011 153.793 309.974 153.897C309.745 153.891 309.518 153.942 309.314 154.047C309.116 154.193 308.973 154.4 308.907 154.636C308.688 155.338 308.742 156.096 309.058 156.76C309.373 157.424 309.928 157.945 310.611 158.219C310.983 158.304 311.34 158.447 311.668 158.643C312.544 159.322 311.986 160.71 312.152 161.806C312.338 163.036 313.53 164.068 313.311 165.293C313.139 166.258 312.107 167.022 312.274 167.988C312.447 169 313.733 169.304 314.757 169.385C315.351 169.488 315.962 169.418 316.517 169.183C317.073 168.803 317.469 168.231 317.628 167.577C318.047 166.33 318.223 165.014 318.147 163.701C318.142 163.104 317.992 162.516 317.709 161.99C317.401 161.573 317.059 161.182 316.687 160.821C314.724 158.54 316.79 155.138 313.073 154.092Z" fill="#405487"/>
<path d="M392.231 210.385C394.853 210.385 396.979 208.262 396.979 205.642C396.979 203.023 394.853 200.899 392.231 200.899C389.608 200.899 387.482 203.023 387.482 205.642C387.482 208.262 389.608 210.385 392.231 210.385Z" fill="#10466A"/>
<path d="M409.879 195.632C414.057 195.632 417.443 192.246 417.443 188.068C417.443 183.891 414.057 180.505 409.879 180.505C405.702 180.505 402.316 183.891 402.316 188.068C402.316 192.246 405.702 195.632 409.879 195.632Z" fill="#10466A"/>
<path d="M417.368 180.402C415.352 178.43 412.637 177.341 409.82 177.376C407.003 177.411 404.316 178.567 402.349 180.589C398.253 184.8 392.405 206.064 392.405 206.064C392.405 206.064 413.458 199.675 417.554 195.464C419.521 193.442 420.607 190.719 420.572 187.895C420.537 185.07 419.385 182.375 417.368 180.402ZM406.334 191.746C405.637 191.064 405.157 190.19 404.956 189.235C404.754 188.28 404.839 187.287 405.2 186.38C405.562 185.474 406.183 184.695 406.986 184.143C407.788 183.59 408.736 183.289 409.71 183.277C410.683 183.265 411.638 183.542 412.454 184.075C413.27 184.607 413.911 185.37 414.294 186.267C414.678 187.164 414.788 188.156 414.61 189.115C414.432 190.075 413.974 190.96 413.294 191.659C412.382 192.596 411.137 193.132 409.832 193.148C408.526 193.164 407.268 192.66 406.334 191.746Z" fill="white"/>
<path d="M189.749 265.01C192.371 265.01 194.497 262.886 194.497 260.267C194.497 257.647 192.371 255.524 189.749 255.524C187.126 255.524 185 257.647 185 260.267C185 262.886 187.126 265.01 189.749 265.01Z" fill="#10466A"/>
<path d="M207.398 250.257C211.575 250.257 214.961 246.871 214.961 242.693C214.961 238.516 211.575 235.13 207.398 235.13C203.22 235.13 199.834 238.516 199.834 242.693C199.834 246.871 203.22 250.257 207.398 250.257Z" fill="#10466A"/>
<path d="M190.761 260.168C190.577 260.226 190.418 260.275 190.287 260.316C190.324 260.183 190.37 260.022 190.423 259.836C190.59 259.247 190.835 258.401 191.14 257.372C191.752 255.315 192.61 252.528 193.596 249.61C194.582 246.692 195.694 243.647 196.815 241.07C197.94 238.482 199.058 236.404 200.046 235.388C201.967 233.413 204.591 232.285 207.341 232.251C210.091 232.217 212.743 233.279 214.711 235.206C216.68 237.132 217.806 239.764 217.84 242.522C217.874 245.281 216.814 247.94 214.893 249.915C213.905 250.931 211.861 252.103 209.309 253.295C206.768 254.482 203.76 255.673 200.875 256.734C197.992 257.794 195.235 258.723 193.199 259.387C192.181 259.719 191.344 259.985 190.761 260.168ZM202.229 243.912C202.441 244.915 202.945 245.833 203.677 246.549C204.659 247.51 205.981 248.04 207.353 248.023C208.725 248.006 210.033 247.443 210.991 246.458C211.705 245.724 212.186 244.794 212.373 243.786C212.561 242.778 212.445 241.736 212.042 240.794C211.639 239.851 210.966 239.049 210.109 238.49C209.251 237.931 208.248 237.639 207.225 237.652C206.202 237.664 205.206 237.981 204.362 238.561C203.519 239.142 202.866 239.96 202.486 240.912C202.107 241.865 202.017 242.908 202.229 243.912Z" fill="white" stroke="#10466A" stroke-width="0.5"/>
<path d="M326.749 258.01C329.371 258.01 331.497 255.886 331.497 253.267C331.497 250.647 329.371 248.524 326.749 248.524C324.126 248.524 322 250.647 322 253.267C322 255.886 324.126 258.01 326.749 258.01Z" fill="#10466A"/>
<path d="M344.398 243.257C348.575 243.257 351.961 239.871 351.961 235.693C351.961 231.516 348.575 228.13 344.398 228.13C340.22 228.13 336.834 231.516 336.834 235.693C336.834 239.871 340.22 243.257 344.398 243.257Z" fill="#10466A"/>
<path d="M351.886 228.027C349.87 226.054 347.155 224.966 344.338 225.001C341.522 225.036 338.834 226.191 336.867 228.214C332.771 232.424 326.923 253.689 326.923 253.689C326.923 253.689 347.976 247.3 352.072 243.089C354.039 241.067 355.125 238.344 355.09 235.519C355.055 232.695 353.903 230 351.886 228.027ZM340.852 239.37C340.155 238.689 339.675 237.815 339.474 236.86C339.272 235.905 339.357 234.911 339.719 234.005C340.08 233.098 340.701 232.32 341.504 231.767C342.306 231.215 343.254 230.914 344.228 230.902C345.201 230.89 346.156 231.167 346.972 231.699C347.788 232.232 348.429 232.995 348.812 233.892C349.196 234.789 349.306 235.78 349.128 236.74C348.95 237.7 348.492 238.585 347.812 239.284C346.9 240.221 345.655 240.757 344.35 240.773C343.044 240.789 341.786 240.285 340.852 239.37Z" fill="white"/>
<path d="M369.749 291.01C372.371 291.01 374.497 288.886 374.497 286.267C374.497 283.647 372.371 281.524 369.749 281.524C367.126 281.524 365 283.647 365 286.267C365 288.886 367.126 291.01 369.749 291.01Z" fill="#10466A"/>
<path d="M387.398 276.257C391.575 276.257 394.961 272.871 394.961 268.693C394.961 264.516 391.575 261.13 387.398 261.13C383.221 261.13 379.834 264.516 379.834 268.693C379.834 272.871 383.221 276.257 387.398 276.257Z" fill="#10466A"/>
<path d="M394.887 261.027C392.87 259.054 390.155 257.966 387.338 258.001C384.522 258.036 381.834 259.191 379.867 261.214C375.771 265.424 369.923 286.689 369.923 286.689C369.923 286.689 390.976 280.3 395.073 276.089C397.04 274.067 398.125 271.344 398.09 268.519C398.055 265.695 396.903 263 394.887 261.027ZM383.852 272.37C383.155 271.689 382.676 270.815 382.474 269.86C382.272 268.905 382.357 267.911 382.719 267.005C383.08 266.098 383.701 265.32 384.504 264.767C385.307 264.215 386.255 263.914 387.228 263.902C388.201 263.89 389.157 264.167 389.973 264.699C390.789 265.232 391.429 265.995 391.813 266.892C392.196 267.789 392.306 268.78 392.128 269.74C391.95 270.7 391.492 271.585 390.812 272.284C389.901 273.221 388.655 273.757 387.35 273.773C386.045 273.789 384.786 273.285 383.852 272.37Z" fill="white"/>
</svg>
