<svg width="699" height="518" viewBox="0 0 699 518" fill="none" xmlns="http://www.w3.org/2000/svg">
<path d="M643.603 125.918C564.365 15.7784 396.979 -28.8991 232.36 19.2197C145.331 44.6586 61.4194 95.6294 19.8346 194.325C-54.5027 370.755 101.578 427.102 203.637 445.06C252.988 453.744 299.468 468.331 341.941 488.191C418.355 523.921 553.613 555.582 655.607 406.75C729.532 298.876 696.383 199.283 643.603 125.918Z" fill="#F5FBFF"/>
<path d="M196.199 123.661C195.993 122.038 195.578 120.448 194.962 118.932C194.884 118.645 194.746 118.378 194.558 118.147C194.371 117.916 194.137 117.727 193.872 117.591C193.518 117.5 193.147 117.495 192.791 117.579L187.24 118.428C186.775 118.449 186.33 118.622 185.973 118.919C185.25 119.679 185.962 120.902 185.94 121.949C185.915 123.128 184.867 124.084 183.731 124.4C182.571 124.634 181.374 124.62 180.22 124.357L172.458 123.152C174.744 122.423 176.779 121.067 178.33 119.238C179.351 118.029 179.895 115.773 178.419 115.201C177.98 115.08 177.523 115.044 177.07 115.093C173.554 115.12 170.786 112.187 167.494 110.952C165.387 110.212 163.099 110.157 160.959 110.795C158.819 111.432 156.935 112.729 155.577 114.5L159.712 114.699C160.101 114.678 160.487 114.781 160.813 114.993C161.72 115.736 160.593 117.165 160.721 118.329C160.887 119.842 162.898 120.165 164.414 120.318C165.93 120.471 167.853 121.701 167.124 123.038C159.504 125.659 151.75 117.913 143.747 118.867C141.722 119.108 139.809 119.903 137.832 120.402C125.752 123.455 113.264 115.31 100.924 117.035C98.1803 117.502 95.4841 118.213 92.8669 119.158C91.1874 119.708 89.4355 120.304 88.2152 121.581C86.9949 122.858 86.5305 125.043 87.6865 126.379C84.5001 126.641 81.2924 126.336 78.2125 125.479C79.0454 125.941 79.7382 126.619 80.2184 127.441C80.6985 128.263 80.9482 129.2 80.9413 130.151C75.9661 130.962 71.1226 132.437 66.5412 134.537C67.3962 135.957 68.395 137.286 69.5216 138.502L63.2231 142.544C65.3511 143.079 66.4513 145.977 65.2138 147.788C67.4202 146.807 68.7877 144.271 71.1471 143.757C72.6928 143.42 74.2656 144.051 75.732 144.645C77.1983 145.238 78.81 145.813 80.328 145.368C81.846 144.923 82.9656 142.957 82.001 141.704C88.4893 139.814 95.1948 138.767 101.951 138.591C102.473 138.526 103.001 138.626 103.462 138.878C104.342 139.487 104.11 140.803 104.063 141.872C104.016 142.94 104.849 144.343 105.805 143.862C104.68 144.836 105.642 146.669 106.721 147.694C107.799 148.718 109.1 150.131 108.439 151.463C108.267 151.811 107.974 152.089 107.809 152.44C107.319 153.475 108.096 154.683 109.013 155.371C109.93 156.058 111.053 156.539 111.69 157.491C112.327 158.444 112.038 160.111 110.899 160.244L107.662 156.138C106.556 157.284 105.798 158.719 105.475 160.277C108.908 163.08 109.424 168.785 106.55 172.157C105.082 173.88 102.993 174.928 101.17 176.272C99.3476 177.616 97.661 179.53 97.6656 181.793C97.6735 185.703 97.3536 189.335 98.8205 192.96C101.525 199.644 104.648 206.151 108.171 212.443C109.095 214.096 110.291 215.907 112.165 216.191C109.797 210.433 107.665 204.585 105.769 198.648C107.004 198.653 108.431 198.751 109.154 199.75C109.754 200.577 109.625 201.702 109.811 202.706C110.048 203.678 110.443 204.606 110.98 205.451L122.289 225.57C123.226 227.238 124.302 229.029 126.093 229.704C127.239 230.136 128.564 230.055 129.618 230.676C130.445 231.164 131.002 232.029 131.844 232.488C134.226 233.786 137.539 231.296 139.765 232.846C140.402 233.289 140.807 233.993 141.393 234.5C143.449 236.279 146.822 235.089 149.196 236.416C150.726 237.271 151.518 238.981 152.334 240.531C154.378 244.412 157.685 248.215 162.065 248.524C163.441 248.621 164.847 248.361 166.191 248.666C167.536 248.972 168.86 250.144 168.644 251.505C168.274 253.838 169.428 256.392 169.118 258.733C168.554 262.998 162.497 264.873 161.977 269.143C161.863 270.078 162.041 271.043 161.818 271.959C161.545 273.08 160.701 273.994 160.402 275.109C159.834 277.222 161.349 279.324 163.014 280.746C164.679 282.168 166.666 283.393 167.576 285.383C168.538 287.487 168.065 289.939 168.378 292.23C169.061 297.232 173.387 300.94 177.839 303.331C179.195 304.06 180.651 304.765 181.529 306.029C182.675 307.678 182.561 309.853 182.943 311.823C183.88 316.65 187.949 320.627 188.064 325.543C188.146 329.036 186.202 332.206 185.04 335.502C183.951 338.66 183.557 342.016 183.885 345.34C184.213 348.665 185.255 351.879 186.939 354.765C187.808 356.23 188.847 357.612 189.462 359.2C190.559 362.035 190.203 365.258 191.214 368.124C192.551 371.914 196.225 375.044 195.874 379.046C197.541 382.506 201.225 384.206 204.928 385.235L211.566 387.081C212.837 387.434 214.165 387.79 215.459 387.534C216.753 387.279 217.988 386.205 217.955 384.888C214.7 384.155 211.34 383.375 208.657 381.394C205.974 379.413 204.136 375.885 205.154 372.711C205.626 371.24 206.63 369.54 205.675 368.324C205.129 367.628 204.129 367.446 203.512 366.811C202.551 365.82 202.881 364.155 203.573 362.961C204.264 361.766 205.263 360.698 205.542 359.346C205.683 358.59 205.589 357.809 205.273 357.108C204.956 356.407 204.433 355.819 203.773 355.423C205.003 354.959 206.123 354.242 207.058 353.317C207.922 352.332 208.321 350.813 207.641 349.692C209.66 349.948 212.042 350.073 213.367 348.531C214.425 347.3 214.353 345.459 213.935 343.891C213.517 342.323 212.81 340.8 212.788 339.177C217.444 339.398 222.11 339.24 226.74 338.705C226.071 336.453 224.549 334.55 222.498 333.399C224.595 333.045 226.506 330.537 227.168 328.518C227.831 326.5 227.662 324.301 227.252 322.217C227.095 321.68 227.073 321.113 227.189 320.566C227.426 319.814 228.165 319.355 228.849 318.963L239.258 312.992C239.879 312.682 240.442 312.266 240.922 311.765C242.013 310.486 241.851 308.554 241.293 306.969C240.734 305.384 239.84 303.894 239.625 302.227C238.982 297.243 244.323 293.667 246.126 288.976C246.833 287.135 246.978 285.133 247.114 283.166C247.261 281.053 247.272 278.599 245.648 277.237C244.091 275.932 241.658 276.223 240.029 275.009C238.535 273.896 238.019 271.734 236.388 270.835C234.906 270.018 233.047 270.538 231.399 270.154C228.497 269.478 226.671 266.137 223.707 265.827C222.034 265.653 220.142 266.469 218.771 265.497C217.563 264.64 217.515 262.917 217.285 261.455C216.882 259.183 215.792 257.089 214.161 255.455C212.53 253.821 210.437 252.725 208.164 252.315C206.44 252.039 204.563 252.144 203.096 251.198C201.611 250.239 200.93 248.445 199.763 247.118C197.883 244.979 194.921 244.219 192.147 243.568L180.862 240.918C178.859 240.448 176.277 240.198 175.202 241.951C174.884 242.618 174.659 243.326 174.533 244.054C174.13 245.372 173.319 246.528 172.217 247.356C171.115 248.185 169.779 248.643 168.4 248.665C167.454 247.054 165.922 245.87 164.123 245.36C162.979 245.041 161.754 245.006 160.663 244.537C160.068 244.247 159.539 243.84 159.108 243.339C158.677 242.838 158.353 242.254 158.156 241.624C157.958 240.993 157.892 240.329 157.96 239.672C158.029 239.015 158.23 238.379 158.554 237.803C159.204 236.646 159.455 235.307 159.269 233.993C159.082 232.679 158.467 231.464 157.52 230.533C155.601 228.813 152.825 228.397 150.251 228.569C149.578 227.1 150.704 225.443 151.919 224.376C153.133 223.309 154.607 222.259 154.872 220.665C155.288 218.158 152.085 216.254 149.653 217.001C147.221 217.749 145.669 220.108 144.643 222.434C144.054 223.768 143.554 225.173 142.625 226.298C141.697 227.424 140.201 228.229 138.787 227.868C136.784 227.357 136.011 224.981 135.568 222.964C134.973 220.259 134.375 217.516 134.5 214.75C134.624 211.983 135.558 209.142 137.601 207.269C140.93 204.216 146.036 204.516 150.528 205.003C149.467 203.808 149.729 201.795 150.865 200.671C151.464 200.139 152.185 199.761 152.964 199.57C153.742 199.379 154.556 199.38 155.334 199.574C156.688 199.856 157.907 200.584 158.796 201.642C160.073 203.196 160.436 205.295 161.401 207.06C162.366 208.825 164.535 210.33 166.311 209.383C167.845 208.565 168.089 206.441 167.707 204.747C167.325 203.052 166.514 201.405 166.653 199.674C166.916 196.371 170.345 194.382 173.37 193.022C176.395 191.661 179.859 189.832 180.338 186.553C180.355 185.911 180.476 185.276 180.697 184.673C181.033 184.141 181.499 183.703 182.052 183.401C190.881 177.573 199.857 171.674 209.948 168.49C210.473 168.324 210.535 168.508 211.07 168.378C211.819 167.946 211.323 166.75 210.605 166.268C209.887 165.787 208.927 165.417 208.745 164.573C208.611 163.952 208.977 163.342 209.072 162.715C209.306 161.172 207.458 159.747 206.023 160.364C205.213 159.292 206.817 158.046 208.113 157.689C212.008 156.619 216.006 155.966 220.039 155.744C220.504 155.67 220.981 155.751 221.396 155.974C222.073 156.443 221.987 157.518 221.507 158.187C221.027 158.856 220.28 159.276 219.682 159.842C219.028 160.478 218.562 161.281 218.334 162.163C218.106 163.046 218.125 163.974 218.389 164.846C220.495 165.916 222.784 167.017 225.116 166.64C227.448 166.263 229.518 163.646 228.421 161.556C227.401 159.61 224.335 159.171 223.807 157.038C223.19 154.541 226.73 152.319 225.933 149.873C225.583 148.802 224.514 148.171 223.694 147.398C222.725 146.449 222.066 145.23 221.803 143.901C221.541 142.572 221.687 141.194 222.222 139.949C220.886 140.184 219.513 140.095 218.218 139.69C216.923 139.286 215.744 138.577 214.78 137.623C213 135.829 211.58 132.999 209.053 133.079C206.733 133.153 204.735 135.855 202.567 135.031C202.033 134.828 201.47 134.415 200.953 134.657C200.784 134.767 200.642 134.914 200.538 135.086C200.433 135.259 200.37 135.454 200.352 135.655C199.801 138.286 200.749 141.285 199.313 143.559C197.75 146.034 194.135 146.377 192.24 148.609C191.212 149.821 190.813 151.453 189.868 152.73C188.922 154.008 186.916 154.82 185.781 153.707C186.339 152.562 186.491 151.262 186.213 150.019C185.935 148.777 185.244 147.665 184.251 146.866C183.198 146.18 182.063 145.628 180.872 145.224C179.541 144.662 178.275 143.957 177.096 143.123C176.506 142.767 176.026 142.254 175.71 141.641C175.461 140.874 175.494 140.043 175.805 139.299C176.38 137.652 177.395 136.192 178.74 135.079C180.085 133.966 181.709 133.24 183.436 132.981C184.947 132.776 186.705 132.848 187.705 131.699C188.233 131.091 188.511 130.171 189.279 129.924C189.77 129.826 190.28 129.888 190.732 130.103L196.37 132.085C196.999 132.369 197.692 132.483 198.379 132.417C198.719 132.371 199.03 132.198 199.249 131.933C199.467 131.668 199.577 131.33 199.556 130.987C199.376 130.052 197.935 129.603 198.066 128.66C198.14 128.355 198.304 128.078 198.538 127.868C200.573 125.705 203.061 124.018 205.825 122.928C208.589 121.838 211.56 121.371 214.526 121.562C215.237 122.73 214.112 124.112 213.175 125.109C212.239 126.105 211.486 127.886 212.619 128.653C213.083 128.889 213.599 129.005 214.12 128.99C215.508 129.178 216.857 129.587 218.116 130.201C220.064 131.048 221.975 131.974 223.848 132.981C223.683 131.747 223.525 130.447 223.993 129.293C224.461 128.14 225.792 127.235 226.954 127.684C228.075 128.117 228.649 129.598 229.843 129.734C231.434 129.915 232.063 127.566 231.398 126.11C230.733 124.654 229.416 123.435 229.306 121.839C229.232 120.762 229.643 119.426 228.781 118.774C228.475 118.578 228.127 118.456 227.765 118.418L206.257 114.464C204.979 114.23 203.134 114.41 203.077 115.706C203.046 116.429 203.693 117.144 203.406 117.81C203.1 118.519 202.096 118.454 201.364 118.705C200.229 119.095 199.659 120.442 199.768 121.636C199.968 122.822 200.428 123.95 201.115 124.938C199.716 124.353 197.598 124.246 196.199 123.661Z" fill="#405487"/>
<path d="M179.037 105.425C177.681 104.977 176.22 104.956 174.851 105.366C173.482 105.775 172.273 106.595 171.387 107.714C171.033 108.18 170.735 108.822 171.032 109.326C171.457 110.049 172.54 109.763 173.338 109.505C174.512 109.086 175.789 109.056 176.982 109.418C177.732 109.675 178.402 110.13 179.155 110.377C179.522 110.53 179.923 110.581 180.317 110.523C180.71 110.466 181.08 110.303 181.387 110.051C181.904 109.525 181.937 108.706 181.938 107.969C181.973 107.722 181.954 107.471 181.88 107.232C181.806 106.994 181.68 106.776 181.51 106.592C181.209 106.418 180.87 106.318 180.522 106.301C179.743 106.157 179.039 105.745 178.53 105.138" fill="#405487"/>
<path d="M186.793 103.269C186.49 103.252 186.187 103.314 185.914 103.448C185.642 103.582 185.408 103.784 185.236 104.034C185.064 104.285 184.959 104.575 184.932 104.877C184.905 105.18 184.956 105.484 185.081 105.761C186.013 106.015 186.987 106.078 187.944 105.948C188.421 105.873 188.866 105.66 189.222 105.334C189.579 105.008 189.83 104.584 189.945 104.115C188.818 104.32 187.655 104.098 186.683 103.493" fill="#405487"/>
<path d="M212.814 99.6669C210.277 100.206 207.812 101.042 205.471 102.158C206.575 102.582 207.513 103.348 208.147 104.345C208.782 105.341 209.079 106.514 208.995 107.692C208.896 108.144 208.907 108.614 209.028 109.06C209.298 109.713 210.079 109.958 210.766 110.126C212 110.501 213.289 110.665 214.578 110.612C215.223 110.578 215.849 110.384 216.4 110.048C216.951 109.712 217.409 109.244 217.734 108.686C217.92 108.157 218.14 107.639 218.39 107.137C220.036 104.632 224.928 107.661 226.696 105.24C227.319 104.387 227.262 103.103 228.074 102.428C228.494 102.133 228.98 101.948 229.49 101.888C233.045 101.182 236.637 100.671 240.248 100.357C241.959 100.209 244.189 99.5951 244.203 97.8797C237.758 96.6155 231.076 97.5134 225.195 100.434C223.076 101.494 220.273 103.724 218.232 102.318C217.468 101.792 217.506 100.375 216.454 99.7835C215.379 99.1786 213.955 99.4246 212.814 99.6669Z" fill="#405487"/>
<path d="M233.89 103.604L236.915 104.184C236.358 104.16 235.802 104.254 235.285 104.461C234.767 104.668 234.3 104.982 233.914 105.384C233.528 105.785 233.232 106.265 233.046 106.79C232.86 107.314 232.788 107.873 232.835 108.428C235.668 109.373 238.757 108.453 241.741 108.579C244.726 108.704 248.198 110.833 247.689 113.773C247.535 114.662 247.02 115.55 247.288 116.412C247.475 117.016 248.008 117.444 248.309 118C248.937 119.16 248.435 120.626 247.643 121.679C246.851 122.733 245.787 123.573 245.092 124.693C243.363 127.478 244.345 131.078 245.375 134.189C245.673 135.365 246.223 136.462 246.987 137.404C248.513 139.025 250.999 139.166 253.226 139.198C254.847 139.222 256.704 139.142 257.729 137.887C259.067 136.25 258.132 133.695 259.013 131.773C259.813 130.027 261.852 129.278 263.699 128.747C267.083 127.774 270.531 126.947 273.73 125.477C277.703 123.652 281.415 120.808 285.782 120.573C287.007 120.507 288.262 120.652 289.442 120.316C290.622 119.981 291.743 118.962 291.653 117.74C291.577 116.696 290.693 115.93 290.002 115.142C289.31 114.355 288.768 113.145 289.403 112.312L300.847 110.177C300.036 107.969 299.404 105.061 301.268 103.623C301.941 103.105 302.842 102.898 303.414 102.271C304.39 101.202 303.899 99.3613 302.773 98.4526C301.646 97.5438 300.123 97.3329 298.679 97.2131C293.661 96.7969 288.614 97.0719 283.586 97.3472C273.758 97.8853 263.929 98.4234 254.101 98.9615C252.122 99.0698 249.838 98.9043 248.023 99.5785C246.487 100.149 245.395 101.197 243.638 101.565C240.394 102.245 236.825 101.785 233.89 103.604Z" fill="#405487"/>
<path d="M288.087 127.487C287.778 127.439 287.463 127.51 287.206 127.687C287.036 127.874 286.935 128.113 286.919 128.365C286.724 129.477 286.957 130.623 287.571 131.571C287.884 132.036 288.315 132.409 288.821 132.651C289.327 132.894 289.889 132.996 290.448 132.949C291.81 132.775 292.814 131.614 294.066 131.048C295.996 130.176 304.194 128.816 298.523 125.756C296.569 124.702 295.306 125.633 293.766 126.327C292.014 127.222 290.05 127.624 288.087 127.487V127.487Z" fill="#405487"/>
<path d="M337.752 101.876C337.09 102.146 336.536 102.628 336.177 103.246C336.012 103.559 335.973 103.925 336.07 104.266C336.166 104.607 336.391 104.898 336.696 105.079C336.943 105.168 337.205 105.21 337.468 105.201L340.161 105.281C341.304 105.316 342.733 105.559 343.04 106.66C343.268 107.477 342.758 108.527 343.374 109.112C343.638 109.316 343.956 109.44 344.29 109.468C345.177 109.696 346.103 109.726 347.002 109.556C348.961 109.031 347.932 107.837 348.549 106.774C349.493 105.147 349.329 106.132 350.993 105.199C352.221 104.511 353.808 103.262 352.783 101.507C351 98.4546 340.383 100.565 337.752 101.876Z" fill="#405487"/>
<path d="M390.89 100.342L389.327 100.55C385.802 101.02 382.256 101.494 378.861 102.552C380.331 103.132 381.873 103.51 383.445 103.675C384.31 103.717 385.169 103.839 386.012 104.039C387.512 104.485 389.023 105.637 390.472 105.047C391.37 104.681 391.663 103.747 392.407 103.252C392.921 102.91 394.87 102.357 395.088 102.012C396.849 99.2219 392.244 100.161 390.89 100.342Z" fill="#405487"/>
<path d="M397.755 107.438C395.666 108.605 393.729 110.022 391.986 111.658C391.251 112.348 390.501 113.205 390.567 114.21C390.656 115.545 392.08 116.32 393.314 116.842L398.311 118.955C398.918 118.102 398.363 116.923 397.736 116.085C397.11 115.246 396.365 114.276 396.642 113.266C396.958 112.115 398.364 111.722 399.543 111.524C401.464 111.2 406.646 111.226 406.023 108.134C405.29 104.491 399.683 106.362 397.755 107.438Z" fill="#405487"/>
<path d="M396.75 313.626C396.274 315.002 396.229 316.622 397.052 317.823C397.975 319.171 399.823 319.674 401.422 319.332C403.015 318.909 404.434 317.997 405.48 316.726C406.437 315.661 407.224 314.455 407.814 313.151C408.637 311.119 409.218 308.997 409.544 306.829L411.096 298.692C411.442 296.873 411.429 291.298 408.082 293.115C407.168 293.611 405.052 297.529 404.093 298.64C402.367 300.642 402.138 302.585 401.229 305.011C400.091 308.05 397.802 310.583 396.75 313.626Z" fill="#405487"/>
<path d="M573.5 355.266C572.405 354.839 571.342 354.334 570.32 353.754C569.295 356.568 568.75 359.534 568.708 362.529L576.201 358.294C577.328 357.657 578.606 356.772 578.581 355.478C578.592 355.319 578.559 355.159 578.486 355.017C578.413 354.874 578.303 354.754 578.167 354.668C578.001 354.602 577.819 354.58 577.642 354.607C576.531 354.699 575.518 355.245 574.47 355.625C573.422 356.005 572.196 356.206 571.234 355.642" fill="#405487"/>
<path d="M613.027 357.78C612.205 358.004 611.401 358.292 610.624 358.641C608.905 359.515 607.735 361.175 606.188 362.326C604.707 363.427 602.924 364.032 601.175 364.62C600.66 365.074 600.896 365.99 601.455 366.389C602.056 366.73 602.745 366.885 603.434 366.833C605.252 366.873 607.167 366.891 608.76 366.014C609.657 365.432 610.496 364.767 611.267 364.026C613.129 362.475 615.364 361.451 617.578 360.462C618.383 360.158 619.128 359.713 619.777 359.148C621.168 357.78 621.266 355.668 619.26 355.203C617.64 354.826 614.57 357.281 613.027 357.78Z" fill="#405487"/>
<path d="M630.492 346.385C630.582 345.444 630.456 344.494 630.125 343.608C629.794 342.722 629.265 341.922 628.579 341.27C628.559 343.154 628.501 345.161 627.44 346.719C626.685 347.829 625.499 348.579 624.671 349.636C623.843 350.694 623.475 352.37 624.447 353.297C625.068 353.769 625.824 354.03 626.604 354.04C628.538 354.267 630.776 354.394 632.132 352.998C632.872 352.237 633.233 351.109 634.135 350.549C634.472 350.408 634.772 350.193 635.014 349.921C635.387 349.329 634.795 348.549 634.128 348.336C633.461 348.122 632.726 348.223 632.056 348.02C631.386 347.817 630.772 347.065 631.115 346.456" fill="#405487"/>
<path d="M599.451 277.311C598.437 277.557 597.386 277.619 596.35 277.493C594.629 277.177 593.289 275.882 591.899 274.819C588.595 272.306 584.579 270.905 580.427 270.816C576.651 270.744 572.839 271.766 569.13 271.053C569.372 272.4 570.526 273.409 571.756 274.009C572.987 274.61 574.345 274.912 575.582 275.5C577.562 276.45 579.133 278.083 580.006 280.097C580.404 281.025 580.654 282.035 581.258 282.846C582.491 284.503 584.828 284.867 586.89 284.732C589.58 284.555 592.388 283.782 594.89 284.783C596.804 285.549 598.174 287.222 599.772 288.523C601.37 289.824 603.621 290.789 605.456 289.851C603.55 289.234 601.891 288.026 600.721 286.401C599.552 284.776 598.933 282.821 598.954 280.82C600.754 280.985 605.938 280.921 605.659 277.867C605.422 275.278 600.997 277.031 599.451 277.311Z" fill="#405487"/>
<path d="M575.907 298.372C576.227 296.621 577.975 295.075 577.43 293.381C577.054 292.209 575.694 291.631 574.462 291.602C573.23 291.573 572.02 291.939 570.789 291.974C569.987 291.931 569.183 291.943 568.383 292.008C565.938 292.409 564.432 294.969 562.128 295.879C560.727 296.432 559.153 296.326 557.696 296.709C554.389 297.577 552.296 300.699 549.984 303.215C546.249 307.264 541.382 310.098 536.015 311.352C534.134 311.787 532.113 312.065 530.618 313.285C528.639 314.9 528.152 317.67 527.711 320.185C526.495 327.13 524.635 333.947 522.157 340.549L530.01 341.551C531.503 341.741 533.05 341.928 534.489 341.486C535.534 341.092 536.525 340.565 537.435 339.919C540.933 337.75 544.847 336.338 548.925 335.776C550.982 335.494 553.138 335.442 555.068 336.206C556.998 336.969 558.653 338.701 558.815 340.768C559.65 340.508 560.539 340.48 561.388 340.687C562.238 340.893 563.015 341.326 563.637 341.939C564.867 343.191 565.672 344.796 565.939 346.529C566.146 347.602 566.353 348.888 567.35 349.338C568.163 349.705 569.096 349.31 569.986 349.239C573.005 348.998 575.511 352.514 578.478 351.908C581.661 351.259 582.443 346.498 585.548 345.544C587.331 344.997 589.832 345.663 590.686 344.006C591.439 342.546 589.937 340.86 590.092 339.225C590.283 337.212 592.661 336.357 594.494 335.498C600.813 332.536 603.812 324.041 600.75 317.775C598.936 314.062 595.365 311.14 594.706 307.062C594.199 303.924 595.437 300.265 593.434 297.795C592.415 296.539 590.69 295.845 590.084 294.346C589.702 293.402 589.855 292.332 589.65 291.335C589.445 290.338 588.574 289.295 587.588 289.553C584.727 290.304 583.814 299.131 582.283 301.276C579.954 304.536 575.174 302.388 575.907 298.372Z" fill="#405487"/>
<path d="M523.026 280.646C522.048 280.372 520.98 280.102 520.043 280.494C519.107 280.885 518.56 282.259 519.311 282.94C525.193 282.712 531.111 282.484 536.943 283.282C543.663 284.201 550.313 286.478 557.062 285.808C553.206 284.672 549.288 283.764 545.326 283.088L538.719 281.828C536.946 281.457 535.155 281.181 533.354 281C529.584 280.689 526.731 281.684 523.026 280.646Z" fill="#405487"/>
<path d="M528.914 260.185C528.426 260.144 527.821 260.109 527.568 260.529C527.327 260.929 527.603 261.459 527.473 261.908C527.296 262.522 526.491 262.678 525.857 262.595C525.223 262.511 524.537 262.311 523.976 262.617C523.691 262.811 523.477 263.092 523.365 263.419C523.254 263.745 523.252 264.098 523.359 264.426C523.589 265.076 523.96 265.668 524.446 266.158C525.277 267.203 526.224 268.152 527.268 268.985C529.29 270.475 532.029 271.193 533.302 273.357C533.482 273.776 533.758 274.147 534.108 274.44C534.719 274.827 535.516 274.533 536.174 274.232L538.481 273.179C538.897 273.03 539.268 272.778 539.56 272.447C540.087 271.733 539.763 270.717 539.321 269.948C538.878 269.178 538.312 268.382 538.407 267.5C538.576 265.927 540.601 265.325 541.434 263.979C542.273 262.623 541.727 260.875 541.823 259.283C541.937 257.422 543.108 255 541.223 253.609C539.622 252.427 538.092 253.519 536.942 254.824C534.517 257.576 533.371 260.557 528.914 260.185Z" fill="#405487"/>
<path d="M542.917 232.371C543.704 233.877 545.346 234.776 546.205 236.243C547.136 237.833 547.03 239.887 548.04 241.428C549.076 243.009 551.161 243.849 551.742 245.647C552.377 247.61 550.937 249.996 552.085 251.712C552.299 251.992 552.569 252.225 552.877 252.396C553.186 252.567 553.527 252.672 553.879 252.704C554.23 252.736 554.585 252.695 554.919 252.583C555.254 252.472 555.562 252.292 555.824 252.055C556.307 251.529 556.566 250.835 556.545 250.121C556.524 249.407 556.225 248.73 555.71 248.233C555.031 247.614 554.056 247.347 553.489 246.624C553.193 246.207 552.996 245.729 552.913 245.225C552.604 243.771 552.653 242.264 553.057 240.834C553.209 240.471 553.248 240.07 553.168 239.685C552.913 238.944 551.907 238.891 551.202 238.547C549.6 237.766 549.639 235.508 549.919 233.749C549.733 234.92 545.557 232.929 545.12 232.266C544.251 230.948 544.724 228.407 544.552 226.951C542.677 227.854 541.954 230.53 542.917 232.371Z" fill="#405487"/>
<path d="M500.853 255.545C500.082 254.684 498.921 253.782 497.888 254.302C497.1 254.698 496.883 255.788 497.192 256.613C497.569 257.416 498.148 258.106 498.873 258.615C501.026 260.389 503.345 261.99 505.223 264.051C508.585 267.741 510.366 272.719 514.021 276.118C514.756 276.907 515.729 277.432 516.792 277.616C517.857 277.715 519.053 277.034 519.175 275.973C519.276 275.098 518.666 274.316 518.069 273.668C516.649 272.125 515.095 270.705 513.754 269.093C513.135 268.474 512.746 267.662 512.651 266.792C512.644 265.924 513.436 265.015 514.278 265.23C513.254 264.969 512.495 263.265 510.992 262.945C509.736 262.677 509.432 263.454 507.937 262.813C505.086 261.592 502.849 257.778 500.853 255.545Z" fill="#405487"/>
<path d="M567.843 171.644C567.026 171.401 566.222 171.114 565.435 170.784C563.318 170.15 560.517 171.704 560.799 173.893C560.987 175.348 562.342 176.328 563.091 177.59C564.201 179.461 563.905 181.835 563.322 183.93C563.178 184.579 562.906 185.193 562.521 185.734C561.982 186.306 561.338 186.769 560.624 187.097C557.765 188.698 555.244 190.837 553.2 193.396C552.978 193.633 552.823 193.924 552.752 194.24C552.651 194.98 553.395 195.518 553.816 196.135C554.75 197.504 554.075 199.347 554.167 201.002C554.153 201.236 554.199 201.469 554.3 201.681C554.402 201.892 554.556 202.074 554.747 202.209C555.311 202.495 555.978 202.01 556.283 201.457C557.296 199.624 556.533 196.682 558.433 195.798C558.793 195.631 559.228 195.561 559.468 195.245C559.849 194.745 559.482 194.004 559.674 193.406C559.964 192.509 561.193 192.468 562.137 192.508C563.762 192.576 565.387 192.36 566.938 191.87C567.546 191.725 568.099 191.406 568.527 190.95C569.095 190.242 569.045 189.236 568.931 188.335C568.363 183.848 566.939 179.51 564.738 175.556C566.407 175.769 568.223 175.954 569.664 175.085C570.47 174.598 571.437 173.143 571.037 172.153C570.405 170.587 569.262 171.905 567.843 171.644Z" fill="#405487"/>
<path d="M353.855 196.326C354.055 197.396 354.252 198.523 353.901 199.553C353.549 200.584 352.445 201.445 351.402 201.129C350.593 200.884 350.125 200.071 349.55 199.452C346.354 196.005 339.143 198 337.168 193.737C336.362 191.996 336.91 189.912 336.36 188.075C336.013 187.013 335.323 186.096 334.399 185.469C333.474 184.841 332.366 184.538 331.25 184.608C330.233 184.754 329.242 185.05 328.31 185.484C322.067 187.981 315.513 189.619 308.828 190.351C307.558 190.428 306.301 190.657 305.085 191.031C302.34 192.025 300.465 194.567 299.13 197.16C297.795 199.754 296.81 202.562 295.021 204.866C293.14 207.288 290.505 208.984 288.046 210.818C287.099 211.427 286.311 212.253 285.746 213.226C285.213 214.319 285.243 215.59 285.284 216.805L285.787 231.56C285.851 233.457 285.932 235.423 286.783 237.121C287.845 239.242 289.943 240.631 291.398 242.505C292.883 244.43 293.657 246.809 293.588 249.238C293.557 250.215 293.46 251.37 294.222 251.984C294.685 252.284 295.227 252.439 295.779 252.431L315.762 254.064C319.277 254.352 323.172 254.824 325.467 257.499C326.551 258.761 327.421 260.577 329.08 260.712C329.791 260.77 330.484 260.479 331.195 260.422C332.991 260.28 334.569 261.642 335.564 263.141C337.071 265.426 337.755 268.155 337.504 270.88C337.34 272.591 336.809 274.253 336.695 275.968C336.259 282.491 341.796 288.158 341.903 294.695C341.966 298.54 340.139 302.132 338.357 305.541C341.233 309.892 338.878 315.686 340.023 320.773C341.109 325.598 345.138 329.376 346.141 334.219C346.601 336.437 346.628 339.165 348.585 340.307C349.444 340.726 350.396 340.916 351.35 340.86C357.104 340.929 362.793 339.635 367.95 337.086C370.371 335.886 372.88 334.095 373.302 331.429C373.643 329.279 372.552 326.875 373.663 325.002C374.972 322.795 378.326 322.97 380.252 321.273C383.377 318.521 380.94 313.271 382.206 309.306C383.345 305.742 387.262 303.848 389.204 300.65C389.969 299.274 390.517 297.789 390.83 296.248C391.72 292.563 392.274 288.805 392.485 285.02C392.537 282.721 392.707 280.426 392.994 278.144C395.087 265.151 407.947 256.451 412.123 243.97C412.521 242.778 412.709 241.19 411.647 240.516C411.017 240.215 410.303 240.141 409.625 240.304L400.413 241.464C399.269 241.608 398.056 241.743 397.006 241.268C395.955 240.794 395.202 239.466 395.759 238.458C397.324 235.627 394.105 232.05 392.676 229.149C388.825 221.339 384.24 213.911 378.981 206.967C378.645 206.61 378.434 206.153 378.381 205.666L380.995 205.752C380.113 202.59 378.656 199.128 375.58 197.971C373.846 197.319 371.926 197.545 370.077 197.646C364.779 197.935 359.099 197.136 353.855 196.326Z" fill="#405487"/>
<path d="M370.081 125.05C371.467 126.521 373.021 128.08 375.027 128.336C378.57 128.789 381.117 125.13 382.739 121.951C382.799 122.761 383.173 123.516 383.782 124.055C384.39 124.594 385.186 124.875 385.998 124.837C386.873 124.69 387.708 124.365 388.45 123.88C395.47 120.049 403.332 118.019 411.331 117.972C411.254 117.367 411.405 116.755 411.753 116.254C412.102 115.753 412.624 115.398 413.218 115.259C414.845 114.937 416.31 116.341 417.094 117.8C417.879 119.259 418.368 120.95 419.615 122.042C420.861 123.134 423.274 123.087 423.767 121.505C424.24 119.987 422.656 118.692 421.34 117.797C420.025 116.902 418.638 115.246 419.524 113.925C426.245 112.439 433.008 110.947 439.885 110.652C441.056 110.693 442.223 110.492 443.313 110.062C444.362 109.548 445.195 108.381 444.913 107.249C443.413 107.601 441.841 107.499 440.398 106.956C438.956 106.412 437.708 105.452 436.814 104.197C446.357 103.411 456.507 102.74 464.964 107.225C465.979 109.401 460.806 111.212 462.19 113.175C462.632 113.801 463.516 113.874 464.282 113.888C470.159 113.997 476.07 114.104 481.881 113.218C484.005 112.894 486.149 112.437 488.281 112.699C491.832 113.137 494.87 115.503 498.363 116.275C499.785 116.589 501.379 116.599 502.578 115.773C503.777 114.947 504.292 113.067 503.31 111.993C506.599 108.773 512.058 109.571 516.397 111.112C520.737 112.654 524.848 115.14 529.441 115.483C532.734 115.73 536.073 114.845 539.328 115.407C541.373 115.761 543.276 116.67 545.275 117.228C549.055 118.284 553.054 118.061 556.979 118.112C566.993 118.246 576.898 120.212 586.204 123.912C587.414 124.305 588.523 124.96 589.452 125.829C590.318 126.755 590.76 128.194 590.178 129.32L580.562 127.917C581.468 129.698 583.812 130.002 585.716 130.616C587.619 131.231 589.592 133.33 588.449 134.969C586.386 134.313 584.517 136.373 583.476 138.268C582.434 140.162 581.164 142.432 579.003 142.547C577.068 142.65 574.727 141.005 573.466 142.474C575.208 144.67 576.701 147.053 577.915 149.579C579.161 152.172 580.049 155.44 578.365 157.773C578.1 158.19 577.698 158.501 577.228 158.654C575.852 159.002 574.958 157.321 573.972 156.302C572.728 155.018 570.848 154.654 569.165 154.052C567.481 153.45 565.708 152.266 565.576 150.484C565.494 149.376 566.08 148.346 566.511 147.322C567.236 145.595 567.554 143.725 567.438 141.856C567.344 140.353 566.922 138.789 565.841 137.738C564.76 136.688 562.893 136.355 561.733 137.317C561.191 137.766 560.757 138.484 560.054 138.511C558.811 138.558 557.857 136.395 556.858 137.133C556.975 137.92 556.812 138.723 556.396 139.402C553.413 141.993 548.831 140.897 544.985 141.812C543.156 142.335 541.405 143.099 539.779 144.083C539.17 144.343 538.652 144.777 538.29 145.331C537.81 146.263 538.34 147.456 539.186 148.075C540.083 148.625 541.091 148.969 542.138 149.082C546.826 149.969 551.583 151.342 555.285 154.349C558.986 157.357 561.413 162.329 560.242 166.949L550.996 158.125C551.348 161.83 551.547 165.546 551.594 169.271C551.654 169.998 551.554 170.73 551.301 171.415C550.642 172.869 548.856 173.358 547.29 173.679C546.855 173.762 546.442 173.935 546.078 174.189C545.715 174.442 545.409 174.769 545.182 175.149C544.954 175.529 544.809 175.952 544.757 176.392C544.704 176.832 544.746 177.277 544.878 177.7C545.435 179.51 546.821 180.922 548.091 182.329C549.361 183.735 550.611 185.334 550.777 187.221C550.943 189.108 549.518 191.234 547.626 191.103C546.192 191.004 545.128 189.721 544.516 188.422C543.905 187.123 543.541 185.675 542.622 184.571C539.84 181.23 533.592 182.661 531.1 179.099C530.464 179.819 530.024 180.688 529.82 181.626C529.616 182.564 529.655 183.538 529.934 184.456C531.093 183.731 532.681 184.404 533.552 185.458C534.423 186.511 534.834 187.861 535.518 189.044C536.441 190.641 537.91 192.056 538.039 193.895C538.004 194.59 538.016 195.287 538.074 195.981C538.303 197.095 539.245 197.895 539.899 198.827C541.42 200.994 541.345 203.971 540.365 206.43C539.384 208.888 537.623 210.943 535.878 212.935C532.831 216.414 529.721 219.873 526.108 222.762C525.077 223.587 523.977 224.398 523.335 225.55C522.693 226.703 522.66 228.321 523.646 229.198C522.94 229.233 521.674 229.58 520.968 229.615C520.72 226.786 520.666 223.944 520.807 221.108C518.021 219.772 515.021 223.35 515.381 226.416C515.74 229.482 517.96 231.942 519.541 234.595C520.697 236.534 521.556 238.796 521.17 241.02C520.784 243.244 518.796 245.296 516.545 245.1C512.964 244.788 511.466 239.653 507.919 239.065C507.607 238.992 507.278 239.025 506.986 239.158C506.46 239.446 506.368 240.15 506.339 240.749C506.193 243.689 506.068 246.746 507.217 249.457C508.898 253.423 513.241 256.753 512.33 260.963C507.422 258.684 504.871 253.187 503.712 247.907C502.554 242.627 502.361 237.084 500.284 232.093C498.707 234.111 495.392 232.442 493.952 230.325C492.586 228.317 491.745 225.994 490.419 223.959C489.094 221.925 487.064 220.103 484.636 219.991C482.091 219.873 479.883 221.618 477.942 223.267C476.345 224.622 474.706 226.031 473.773 227.905C472.415 230.631 472.77 233.846 472.705 236.891C472.634 240.182 471.936 243.655 469.69 246.065C467.444 248.475 463.298 249.314 460.82 247.142C459.527 246.008 458.901 244.314 458.343 242.688C455.654 234.85 453.414 226.865 451.635 218.773C451.219 220.62 449.595 223.001 448.044 221.912C447.696 221.62 447.414 221.257 447.217 220.848C444.323 215.949 438.964 213.011 433.55 211.249C428.135 209.487 422.438 208.666 417.084 206.73C414.083 205.644 411.218 204.218 408.543 202.48C407.861 203.481 407.463 204.647 407.39 205.855C407.318 207.063 407.574 208.269 408.132 209.343C409.32 211.444 412.007 212.659 414.308 211.925C415.497 211.546 416.501 210.721 417.681 210.314C418.861 209.907 420.444 210.107 420.96 211.242C421.454 212.329 420.707 213.643 421.077 214.778C421.641 216.505 424.251 216.639 425.163 218.211C425.842 219.381 425.283 220.934 424.314 221.878C423.345 222.822 422.051 223.34 420.868 223.997C417.029 226.13 414.299 229.77 410.944 232.601C407.589 235.433 402.855 237.501 398.857 235.684C399.81 230.864 394.061 227.325 393.003 222.526C392.655 220.947 392.835 219.269 392.338 217.73C391.619 215.501 389.639 213.969 388.015 212.28C386.046 210.21 384.511 207.766 383.502 205.093C382.494 202.421 382.031 199.573 382.142 196.719C382.23 194.736 382.594 192.721 382.142 190.788C381.69 188.855 380.087 186.984 378.102 187.071C373.567 187.271 367.853 187.608 365.474 183.747C364.625 182.369 364.255 180.35 365.483 179.294C366.349 178.55 367.628 178.62 368.765 178.731L378.983 179.735C381.373 179.97 383.957 180.164 386.008 178.916C388.058 177.668 388.947 174.356 387.048 172.888C385.661 171.815 383.175 171.873 382.771 170.167C382.435 168.747 384.01 167.135 383.159 165.948C382.55 165.097 381.179 165.333 380.349 165.971C379.518 166.609 378.915 167.542 377.986 168.025C376.355 168.873 374.407 168.066 372.653 167.518C370.899 166.97 368.547 166.923 367.696 168.551C366.744 170.371 368.54 172.756 367.596 174.579C366.347 176.99 362.119 175.618 360.365 177.692C358.353 180.072 361.734 183.62 361.056 186.661C360.189 187.089 359.227 187.286 358.261 187.232C357.296 187.178 356.361 186.874 355.549 186.352C354.749 185.809 354.112 185.059 353.705 184.183C353.298 183.307 353.136 182.338 353.237 181.377C353.405 180.009 354.119 178.613 353.64 177.321C353.254 176.276 352.203 175.654 351.227 175.115L341.297 169.634C340.375 171.342 341.541 173.46 342.998 174.743C344.456 176.026 346.282 176.992 347.239 178.681C347.845 179.851 347.981 181.207 347.619 182.474C347.257 183.74 346.425 184.821 345.292 185.495C345.15 185.593 344.989 185.659 344.819 185.689C344.649 185.718 344.474 185.711 344.308 185.667C344.149 185.574 344.011 185.45 343.901 185.303C343.792 185.155 343.713 184.988 343.669 184.809C341.917 180.331 339.287 175.916 335.081 173.577C330.876 171.237 324.833 171.718 322.075 175.659C321.42 176.595 320.98 177.662 320.41 178.651C317.378 183.909 310.879 186.399 304.806 186.236C304.212 186.269 303.621 186.13 303.104 185.837C302.123 185.16 302.167 183.723 302.317 182.541L302.955 177.526C303.083 176.519 303.268 175.406 304.066 174.777C305.191 173.891 306.814 174.45 308.246 174.43C309.332 174.379 310.375 173.996 311.235 173.333C312.096 172.67 312.731 171.759 313.055 170.723C313.344 169.677 313.343 168.572 313.05 167.527C312.757 166.482 312.184 165.537 311.393 164.793C310.736 164.177 309.855 163.403 310.202 162.573C310.34 162.343 310.527 162.146 310.75 161.997C310.972 161.847 311.225 161.748 311.49 161.706C314.064 160.96 316.783 160.764 319.313 159.883C321.843 159.003 324.297 157.201 324.897 154.592C325.08 153.793 325.164 152.825 325.883 152.428C326.244 152.276 326.631 152.197 327.022 152.196C328.394 152.001 329.643 151.3 330.524 150.231C331.404 149.162 331.852 147.803 331.78 146.421C332.992 145.575 334.691 146.197 335.864 147.098C337.038 147.998 338.073 149.187 339.501 149.575C342.161 150.298 344.732 147.946 347.489 147.935C348.648 147.93 349.849 148.34 350.939 147.947C352.045 147.549 352.706 146.45 353.554 145.637C354.403 144.825 355.892 144.33 356.676 145.205L356.008 140.268C357.352 140.607 358.753 140.655 360.117 140.409C361.481 140.162 362.777 139.627 363.917 138.84L355.292 135.929C354.992 135.854 354.715 135.706 354.486 135.499C353.859 134.824 354.481 133.773 354.991 133.007C356.211 131.173 356.416 128.152 354.41 127.239C353.041 126.616 351.469 127.364 350.155 128.096L343.86 131.601C343.66 132.797 345.124 133.474 346.03 134.279C346.579 134.766 346.967 135.407 347.144 136.119C347.321 136.83 347.278 137.578 347.022 138.265C346.765 138.952 346.306 139.545 345.706 139.967C345.106 140.389 344.392 140.619 343.658 140.628C344.072 141.166 344.36 141.791 344.5 142.455C344.641 143.12 344.629 143.807 344.467 144.467L340.232 144.771C339.757 144.867 339.263 144.77 338.858 144.503C338.405 144.102 338.467 143.397 338.362 142.801C338.108 141.363 336.698 140.355 335.259 140.096C333.82 139.838 332.348 140.169 330.923 140.496C330.317 140.714 329.653 140.699 329.059 140.453C328.718 140.232 328.459 139.906 328.321 139.524C327.696 138.011 328.28 136.232 329.284 134.938C330.287 133.644 331.661 132.699 332.895 131.621C335.845 129.036 338.012 125.678 339.152 121.927C341.484 120.951 343.898 119.626 346.229 118.65C349.824 116.832 353.855 116.052 357.869 116.397L365.765 116.548C368.103 116.593 370.504 116.65 372.665 117.54C374.827 118.43 376.726 120.355 376.875 122.686C376.92 122.95 376.898 123.221 376.809 123.473C376.721 123.726 376.569 123.952 376.369 124.13C376.064 124.296 375.718 124.374 375.371 124.355C373.191 124.431 372.261 124.974 370.081 125.05Z" fill="#405487"/>
<path d="M307.145 149.767C307.454 149.475 307.676 149.104 307.787 148.695C307.898 148.285 307.894 147.853 307.776 147.446C307.025 147.156 306.208 147.082 305.418 147.231C304.627 147.38 303.894 147.747 303.3 148.29C302.833 148.762 302.43 149.295 302.102 149.873C301.064 151.563 300.146 153.583 300.748 155.473C300.797 155.679 300.886 155.873 301.012 156.044C301.137 156.215 301.295 156.36 301.477 156.469C301.746 156.577 302.037 156.622 302.326 156.602C303.469 156.6 304.611 156.53 305.746 156.391C306.442 156.306 307.252 156.11 307.521 155.462C307.875 154.611 307.018 153.648 307.268 152.761C307.432 152.364 307.681 152.008 307.998 151.717C308.154 151.571 308.275 151.39 308.35 151.189C308.424 150.988 308.451 150.772 308.428 150.559C308.327 150.143 307.689 149.907 307.459 150.268" fill="#405487"/>
<path d="M313.073 142.092C312.057 141.859 311.011 141.793 309.974 141.897C309.745 141.891 309.518 141.942 309.314 142.047C309.116 142.193 308.973 142.4 308.907 142.636C308.688 143.338 308.742 144.096 309.058 144.76C309.373 145.424 309.928 145.945 310.611 146.219C310.983 146.304 311.34 146.447 311.668 146.643C312.544 147.322 311.986 148.71 312.152 149.806C312.338 151.036 313.53 152.068 313.311 153.293C313.139 154.258 312.107 155.022 312.274 155.988C312.447 157 313.733 157.304 314.757 157.385C315.351 157.488 315.962 157.418 316.517 157.183C317.073 156.803 317.469 156.231 317.628 155.577C318.047 154.33 318.223 153.014 318.147 151.701C318.142 151.104 317.992 150.516 317.709 149.99C317.401 149.573 317.059 149.182 316.687 148.821C314.724 146.54 316.79 143.138 313.073 142.092Z" fill="#405487"/>
<path d="M392.231 198.385C394.853 198.385 396.979 196.262 396.979 193.642C396.979 191.023 394.853 188.899 392.231 188.899C389.608 188.899 387.482 191.023 387.482 193.642C387.482 196.262 389.608 198.385 392.231 198.385Z" fill="#10466A"/>
<path d="M409.879 183.632C414.057 183.632 417.443 180.246 417.443 176.068C417.443 171.891 414.057 168.505 409.879 168.505C405.702 168.505 402.316 171.891 402.316 176.068C402.316 180.246 405.702 183.632 409.879 183.632Z" fill="#10466A"/>
<path d="M417.368 168.402C415.352 166.43 412.637 165.341 409.82 165.376C407.003 165.411 404.316 166.567 402.349 168.589C398.253 172.8 392.405 194.064 392.405 194.064C392.405 194.064 413.458 187.675 417.554 183.464C419.521 181.442 420.607 178.719 420.572 175.895C420.537 173.07 419.385 170.375 417.368 168.402V168.402ZM406.334 179.746C405.637 179.064 405.157 178.19 404.956 177.235C404.754 176.28 404.839 175.287 405.2 174.38C405.562 173.474 406.183 172.695 406.986 172.143C407.788 171.59 408.736 171.289 409.71 171.277C410.683 171.265 411.638 171.542 412.454 172.075C413.27 172.607 413.911 173.37 414.294 174.267C414.678 175.164 414.788 176.156 414.61 177.115C414.432 178.075 413.974 178.96 413.294 179.659C412.382 180.596 411.137 181.132 409.832 181.148C408.526 181.164 407.268 180.66 406.334 179.746V179.746Z" fill="white"/>
<path d="M464.749 227.01C467.371 227.01 469.497 224.886 469.497 222.267C469.497 219.647 467.371 217.524 464.749 217.524C462.126 217.524 460 219.647 460 222.267C460 224.886 462.126 227.01 464.749 227.01Z" fill="#10466A"/>
<path d="M482.398 212.257C486.575 212.257 489.961 208.871 489.961 204.693C489.961 200.516 486.575 197.13 482.398 197.13C478.22 197.13 474.834 200.516 474.834 204.693C474.834 208.871 478.22 212.257 482.398 212.257Z" fill="#10466A"/>
<path d="M489.886 197.027C487.87 195.054 485.155 193.966 482.338 194.001C479.522 194.036 476.834 195.191 474.867 197.214C470.771 201.424 464.923 222.689 464.923 222.689C464.923 222.689 485.976 216.3 490.072 212.089C492.039 210.067 493.125 207.344 493.09 204.519C493.055 201.695 491.903 199 489.886 197.027V197.027ZM478.852 208.37C478.155 207.689 477.675 206.815 477.474 205.86C477.272 204.905 477.357 203.911 477.719 203.005C478.08 202.098 478.701 201.32 479.504 200.767C480.306 200.215 481.254 199.914 482.228 199.902C483.201 199.89 484.156 200.167 484.972 200.699C485.788 201.232 486.429 201.995 486.812 202.892C487.196 203.789 487.306 204.78 487.128 205.74C486.95 206.7 486.492 207.585 485.812 208.284C484.9 209.221 483.655 209.757 482.35 209.773C481.044 209.789 479.786 209.285 478.852 208.37V208.37Z" fill="white"/>
<path d="M326.749 246.01C329.371 246.01 331.497 243.886 331.497 241.267C331.497 238.647 329.371 236.524 326.749 236.524C324.126 236.524 322 238.647 322 241.267C322 243.886 324.126 246.01 326.749 246.01Z" fill="#10466A"/>
<path d="M344.398 231.257C348.575 231.257 351.961 227.871 351.961 223.693C351.961 219.516 348.575 216.13 344.398 216.13C340.22 216.13 336.834 219.516 336.834 223.693C336.834 227.871 340.22 231.257 344.398 231.257Z" fill="#10466A"/>
<path d="M351.886 216.027C349.87 214.054 347.155 212.966 344.338 213.001C341.522 213.036 338.834 214.191 336.867 216.214C332.771 220.424 326.923 241.689 326.923 241.689C326.923 241.689 347.976 235.3 352.072 231.089C354.039 229.067 355.125 226.344 355.09 223.519C355.055 220.695 353.903 218 351.886 216.027V216.027ZM340.852 227.37C340.155 226.689 339.675 225.815 339.474 224.86C339.272 223.905 339.357 222.911 339.719 222.005C340.08 221.098 340.701 220.32 341.504 219.767C342.306 219.215 343.254 218.914 344.228 218.902C345.201 218.89 346.156 219.167 346.972 219.699C347.788 220.232 348.429 220.995 348.812 221.892C349.196 222.789 349.306 223.78 349.128 224.74C348.95 225.7 348.492 226.585 347.812 227.284C346.9 228.221 345.655 228.757 344.35 228.773C343.044 228.789 341.786 228.285 340.852 227.37V227.37Z" fill="white"/>
<path d="M369.749 279.01C372.371 279.01 374.497 276.886 374.497 274.267C374.497 271.647 372.371 269.524 369.749 269.524C367.126 269.524 365 271.647 365 274.267C365 276.886 367.126 279.01 369.749 279.01Z" fill="#10466A"/>
<path d="M387.398 264.257C391.575 264.257 394.961 260.871 394.961 256.693C394.961 252.516 391.575 249.13 387.398 249.13C383.221 249.13 379.834 252.516 379.834 256.693C379.834 260.871 383.221 264.257 387.398 264.257Z" fill="#10466A"/>
<path d="M394.887 249.027C392.87 247.054 390.155 245.966 387.338 246.001C384.522 246.036 381.834 247.191 379.867 249.214C375.771 253.424 369.923 274.689 369.923 274.689C369.923 274.689 390.976 268.3 395.073 264.089C397.04 262.067 398.125 259.344 398.09 256.519C398.055 253.695 396.903 251 394.887 249.027V249.027ZM383.852 260.37C383.155 259.689 382.676 258.815 382.474 257.86C382.272 256.905 382.357 255.911 382.719 255.005C383.08 254.098 383.701 253.32 384.504 252.767C385.307 252.215 386.255 251.914 387.228 251.902C388.201 251.89 389.157 252.167 389.973 252.699C390.789 253.232 391.429 253.995 391.813 254.892C392.196 255.789 392.306 256.78 392.128 257.74C391.95 258.7 391.492 259.585 390.812 260.284C389.901 261.221 388.655 261.757 387.35 261.773C386.045 261.789 384.786 261.285 383.852 260.37V260.37Z" fill="white"/>
</svg>
