<svg width="316" height="224" viewBox="0 0 316 224" fill="none" xmlns="http://www.w3.org/2000/svg">
<rect width="316" height="49" rx="10" fill="#2282CB"/>
<rect y="65" width="171" height="32" rx="10" fill="#DFECF7"/>
<rect x="257" y="65" width="59" height="32" rx="10" fill="#DFECF7"/>
<rect x="184" y="65" width="60" height="32" rx="10" fill="#DFECF7"/>
<rect y="107" width="171" height="32" rx="10" fill="#DFECF7"/>
<rect x="257" y="107" width="59" height="32" rx="10" fill="#DFECF7"/>
<rect x="184" y="107" width="60" height="32" rx="10" fill="#DFECF7"/>
<rect y="150" width="171" height="32" rx="10" fill="#DFECF7"/>
<rect x="257" y="150" width="59" height="32" rx="10" fill="#DFECF7"/>
<rect x="184" y="150" width="60" height="32" rx="10" fill="#DFECF7"/>
<rect y="192" width="171" height="32" rx="10" fill="#DFECF7"/>
<rect x="257" y="192" width="59" height="32" rx="10" fill="#DFECF7"/>
<rect x="184" y="192" width="60" height="32" rx="10" fill="#DFECF7"/>
</svg>
