<svg width="224" height="224" viewBox="0 0 224 224" fill="none" xmlns="http://www.w3.org/2000/svg">
<path d="M224 112C224 138.355 214.706 163.867 197.752 184.046C180.799 204.225 157.272 217.778 131.311 222.323L121.656 167.161C134.636 164.889 146.399 158.112 154.876 148.023C163.353 137.933 168 125.178 168 112L224 112Z" fill="#DFECF6"/>
<path d="M86.8568 2.85871C103.196 -0.905484 120.173 -0.952904 136.533 2.71995C152.893 6.3928 168.22 13.6922 181.383 24.0795L146.691 68.0398C140.11 62.8461 132.447 59.1964 124.267 57.36C116.086 55.5235 107.598 55.5473 99.4284 57.4294L86.8568 2.85871Z" fill="#22C1A4"/>
<path d="M179.298 22.4737C193.589 33.216 205.1 47.2231 212.87 63.3242C220.639 79.4253 224.442 97.1524 223.959 115.024L167.98 113.512C168.221 104.576 166.32 95.7126 162.435 87.6621C158.55 79.6116 152.794 72.608 145.649 67.2368L179.298 22.4737Z" fill="#228EC4"/>
<path d="M133.25 221.966C104.085 227.601 73.8759 221.421 49.2683 204.783C24.6606 188.146 7.67006 162.414 2.03431 133.25C-3.60144 104.085 2.57927 73.8759 19.2168 49.2683C35.8542 24.6606 61.5857 7.67006 90.7504 2.03431L101.375 57.0172C86.7928 59.835 73.9271 68.3303 65.6084 80.6341C57.2896 92.938 54.1993 108.042 57.0172 122.625C59.835 137.207 68.3303 150.073 80.6341 158.392C92.938 166.71 108.042 169.801 122.625 166.983L133.25 221.966Z" fill="#22CF76"/>
</svg>
