<svg xmlns="http://www.w3.org/2000/svg" xmlns:xlink="http://www.w3.org/1999/xlink" viewBox="0 0 800 800"><defs><style>.cls-1{fill:none;}.cls-2{clip-path:url(#clip-path);}.cls-3{fill:#3a593a;}.cls-4{fill:#c98a2f;}.cls-5{fill:#dda14a;}.cls-6{fill:#281e27;}.cls-7{fill:#ddf0d5;}.cls-8{fill:#a8da93;}.cls-9{fill:#fff;}</style><clipPath id="clip-path"><path class="cls-1" d="M204.21,105.43c-342.31,277.11-234.77,682,346.56,682,122.07,0,215.42-83,236.56-333.88C824.67,10.41,439-84.62,204.21,105.43Z"/></clipPath></defs><title>Artboard 97 copy 3</title><g id="Layer_1" data-name="Layer 1"><g class="cls-2"><rect class="cls-3" width="800" height="800"/><path class="cls-4" d="M525.35,557.6s-40.82-3.39-54.57-26.67L457,507.65H360.73L347,530.93c-13.76,23.28-54.57,26.67-54.57,26.67C278,661.52,408.87,655.81,408.87,655.81S539.71,661.52,525.35,557.6Z"/><path class="cls-5" d="M224.56,344.4c11-4.3,26.18,8.38,34,28.32s5.26,39.59-5.7,43.89-20.44-9.45-28.25-29.39S213.59,348.69,224.56,344.4Z"/><path class="cls-5" d="M593.05,387.22c-7.81,19.94-17.29,33.68-28.25,29.39s-13.51-23.95-5.69-43.89,23-32.62,34-28.32S600.87,367.28,593.05,387.22Z"/><path class="cls-5" d="M588.46,296c0,19,.15,50.35-5.37,72-23,92.47-91.6,196-172.6,196-80.12,0-147.88-100.42-171.72-191.8-6.18-23.18-9.52-45.69-9.49-65.77C229.5,155.31,588.68,144.91,588.46,296Z"/><path class="cls-6" d="M601.44,225.08c-4.59-60.16-70-53.92-70-53.92l-.07.15-.12-.11.19,0s12.25-12.28-4.44-45.76S426.21,69.67,345.55,91.93s-128.07,71.93-130.2,158.56c-1.93,78.31,31.07,149.34,31.07,149.34a6.28,6.28,0,0,0,6,4.39h0a6.3,6.3,0,0,0,6.17-5L270,342.39a6.27,6.27,0,0,1,2.52-3.89c45.66-31.93,110-35.8,177.24-84.92a6.28,6.28,0,0,1,9.69,3.23c12.5,40,41,77.05,92.39,104.77a6.31,6.31,0,0,1,3.2,4.3l6.72,33.3a6.29,6.29,0,0,0,6.16,5h0a6.27,6.27,0,0,0,6-4.39S608.87,322.45,601.44,225.08Z"/><path class="cls-7" d="M719.65,751.78c0-90.48-68.94-167.49-188.49-196.33a6.15,6.15,0,0,0-7.31,4.08c-5.66,17.55-30,71.6-115,71.6s-109.31-54-115-71.6a6.15,6.15,0,0,0-7.31-4.08C167,584.29,98.1,661.3,98.1,751.78v91H719.65Z"/></g><circle class="cls-8" cx="613.85" cy="244.41" r="78.34"/><path class="cls-9" d="M606.1,280.78a6.49,6.49,0,0,1-4.32-1.65l-33.55-29.86a6.5,6.5,0,1,1,8.64-9.71l28.81,25.64L650,217.67a6.5,6.5,0,1,1,9.51,8.87l-48.7,52.17A6.48,6.48,0,0,1,606.1,280.78Z"/></g></svg>