<svg xmlns="http://www.w3.org/2000/svg" viewBox="0 0 800 800"><defs><style>.cls-1{fill:#281e27;}.cls-2{fill:#efe8da;}.cls-3{fill:#3a593a;}.cls-4,.cls-5{fill:none;}.cls-5{stroke:#c98a2f;stroke-miterlimit:10;stroke-width:6px;}</style></defs><title>Artboard 97</title><g id="Layer_1" data-name="Layer 1"><path class="cls-1" d="M198.05,100.56c-342.31,277.11-234.77,682,346.56,682,122.07,0,215.42-83,236.56-333.88C818.51,5.54,432.82-89.49,198.05,100.56Z"/><circle class="cls-2" cx="400" cy="400" r="217.28"/><path class="cls-3" d="M512.38,214c-.14.05-57.29,18.7-67.43,34.09s.38,33.47-15,50.91-27.56,15.24-30.06,39.27,28.34,38.12,56.24,28.19,37.21-37.9,63.73-34c9.92,1.46,28.82,14.55,44.83,43.64s29.5,21.62,52.57,23.9A217.16,217.16,0,0,0,512.38,214Z"/><path class="cls-3" d="M242.23,250.7c14-5.29,32-11.2,53.38-12.79,39.27-2.91,49.45-5.82,53.82-14.54s20.36-4.37,39.27-11.64,11.3-29,11.3-29A216.59,216.59,0,0,0,242.23,250.7Z"/><path class="cls-3" d="M433.54,389.6c16.81,0,40.61-16.54,63.16-10.52s46.63,34.59,45.12,57.15,19.55,27.07,18,40.6-67.68,91.74-75.2,100.76S420,595.64,427.52,552s12-69.18,0-82.72-45.11-12-45.11-34.59,10.52-37.6,16.54-40.6S429,389.6,433.54,389.6Z"/><path class="cls-3" d="M288.37,356c-5.81-7.28-18.91-26.18-30.54-37.82-6.68-6.68-34.41-6.65-56.85-5.41A216.47,216.47,0,0,0,182.72,400c0,.29,0,.58,0,.88,13.62-.15,29.18,4.43,34.36,14.8,5.82,11.63,26.18,107.63,43.64,109.09s16-16,17.45-34.91,16-30.55,26.18-36.37,24.73-20.36,27.64-32S329.1,372,321.83,363.31,294.19,363.31,288.37,356Z"/><circle class="cls-4" cx="400" cy="400" r="217.28"/><line class="cls-5" x1="561.86" y1="431.96" x2="523.99" y2="485.36"/><circle class="cls-1" cx="565.16" cy="427.31" r="15.79"/></g></svg>