<svg xmlns="http://www.w3.org/2000/svg" xmlns:xlink="http://www.w3.org/1999/xlink" viewBox="0 0 800 800"><defs><style>.cls-1{fill:none;}.cls-2{clip-path:url(#clip-path);}.cls-3{fill:#281e27;}.cls-4{fill:#44263e;}.cls-5{fill:#3a593a;}.cls-6{fill:#c98a2f;}.cls-7{fill:#54324f;}.cls-8{fill:#dda14a;}</style><clipPath id="clip-path"><path class="cls-1" d="M540.18,769.38c319.18-77,305.34-430.22,117.3-667.19C459.73-147-35.24,103.52,12.14,508.14,46.89,804.85,277.83,832.65,540.18,769.38Z"/></clipPath></defs><title>Artboard 97 copy 4</title><g id="Layer_1" data-name="Layer 1"><g class="cls-2"><rect class="cls-3" x="5.8" y="3.65" width="800" height="800"/><path class="cls-4" d="M456.6,613.74c-54.56,13.7-172.16-9.86-182.09-7.48a319.41,319.41,0,0,1-83.17-30.69A35.06,35.06,0,0,1,242,562.25,29.79,29.79,0,0,1,265.42,548a41.62,41.62,0,0,1,5.9.16,42.1,42.1,0,0,1,80.17-16.5,37,37,0,0,1,28.31-16.27,37.37,37.37,0,0,1,26.39,8.55,33.67,33.67,0,0,1,62.6,9.11,29.39,29.39,0,0,1,8.57-1.71A34.22,34.22,0,0,1,512,554.17C517.07,546,488.81,601.13,456.6,613.74Z"/><path class="cls-5" d="M594.28,98.78c-329.79-45.87-258.18,267.7-97.9,180.7C570,239.48,585.89,132.91,594.28,98.78Z"/><path class="cls-5" d="M177.49,260.74C424.49,167,419.18,400.6,291.34,365.36,228.41,348,191,285.64,177.49,260.74Z"/><path class="cls-5" d="M585.29,353.45c-193.15-97.75-209,93-101.89,75.25C536.23,419.87,574.56,364.74,585.29,353.45Z"/><path class="cls-6" d="M535.54,359.35c-16.75-.46-33.68.35-50.35,3.62s-33.12,8.75-48,17.82a116.86,116.86,0,0,0-20.65,16,109.06,109.06,0,0,0-15.76,19.51q-.88-23-1-46c0-4.93.07-9.84.1-14.76s.2-9.84.4-14.74.43-9.81.83-14.68c.18-2.44.32-4.89.54-7.33l.7-7.29c1.05-9.71,2.31-19.4,4.25-28.91a214.14,214.14,0,0,1,7.37-28.1A172.09,172.09,0,0,1,425.6,228a152.88,152.88,0,0,1,16.26-24,190.21,190.21,0,0,1,20.25-21.1,264.34,264.34,0,0,1,23.13-18.26,456.2,456.2,0,0,1,51-30.31,1.55,1.55,0,0,0,.68-2,1.54,1.54,0,0,0-2-.71c-17.92,8.7-35.64,17.95-52.48,28.82A297.11,297.11,0,0,0,458,178a198.12,198.12,0,0,0-22,20.93c-13.68,15.07-24.29,33-31.91,51.89a224.37,224.37,0,0,0-9.33,29.1c-2.57,9.85-4.41,19.82-6,29.8l-1.13,7.5c-.36,2.5-.64,5-1,7.5-.68,5-1.13,10-1.67,15-.21,2-.39,4-.57,6.06-.42-.66-.83-1.32-1.26-2-9.49-14.43-22.46-25.8-36.38-34.88A199.89,199.89,0,0,0,302,288.08a326.55,326.55,0,0,0-47.45-11.57,1.54,1.54,0,0,0-.61,3h0a320.65,320.65,0,0,1,45.94,14.32,192.26,192.26,0,0,1,41.64,22.68c12.54,9.36,23.67,20.56,31.17,33.77A84.13,84.13,0,0,1,381.2,371l0,.05a27.17,27.17,0,0,1,.81,8.23q-1.35,25.26-1.73,50.55c-.37,20-.5,39.93-.55,59.86l-.23,59.81c0,.49,0,1,.06,1.49a15.36,15.36,0,0,0,17.74,13.74c8.08-1.28,13.55-9,12.8-17.12-.9-9.68-1.72-19.41-2.51-29.12-.79-9.89-1.63-19.79-2.33-29.69q-1.35-18.65-2.55-37.29a36.5,36.5,0,0,1,2.13-14.9,101.53,101.53,0,0,1,5.88-13.14,100.27,100.27,0,0,1,31.5-35c13.16-9.21,28.45-15.43,44.3-19.55s32.43-6,49-6.55h0a1.53,1.53,0,0,0,0-3.06Z"/><path class="cls-7" d="M383.9,608.12C326.84,604,219.57,639,226.58,565.76a34.15,34.15,0,0,1,24.2-10.18,33.06,33.06,0,0,1,20.36,6.88,27.53,27.53,0,0,1,23.1-12.1,36.48,36.48,0,0,1,5.5.55A40.11,40.11,0,0,1,377,540.46a35.6,35.6,0,0,1,52.53-3.58,31.4,31.4,0,0,1,27-14.85,32.06,32.06,0,0,1,31.9,27.5,27.37,27.37,0,0,1,8.25-1.1,32.83,32.83,0,0,1,31.63,23.93C533.53,565.76,524.73,618.28,383.9,608.12Z"/><path class="cls-8" d="M242.05,515.13c44.57,12.84,120.66,26.45,144.68,30.61a7,7,0,0,1,5.5,9.07c-3.52,10.85-12.54,29.74-33.53,34.45-25.24,5.66-85.88-4.59-104.28-7.94-4.47-.82-9,2.19-9.43,6.72-.42,4.16,2.37,8.91,15.24,11.29,20.19,3.73,101.84,2.81,136.09,2.24a70.24,70.24,0,0,0,28.85-6.71c33.79-16,120-56.45,137.72-62.94,13.73-5,24.12.93,30,6.18a7,7,0,0,1-.33,10.76c-25.49,20.2-126.74,100.38-152,119.69A34.69,34.69,0,0,1,428,674.66c-46,11.64-237.15,27.61-237.15,27.61l-53.65,5.47a51,51,0,0,0-26.59,10.84L48.48,768A393.75,393.75,0,0,1-47.46,661.15l99.75-72.76a38.42,38.42,0,0,0,9.19-9.67c40.64-60.77,128.68-78.81,180.57-63.86v.27Z"/></g></g></svg>