<svg xmlns="http://www.w3.org/2000/svg" viewBox="0 0 800 800"><defs><style>.cls-1{fill:#dda14a;}.cls-2{fill:#fbf7eb;}.cls-3{fill:#44263e;}.cls-4{fill:#ffc973;}</style></defs><title>Artboard 100 copy</title><g id="Layer_1" data-name="Layer 1"><path class="cls-1" d="M336.21,15.49C109.12,23,.34,340.16,7.76,553.35,18,877.78,692.67,867.72,773.6,504.42,860.31,115.14,568.86,7.85,336.21,15.49Z"/><path class="cls-2" d="M400.69,242.32h-56c-13.64,0-10.71,29.5-11.9,39.85-6.32,54.52-59.63,79.62-59.63,155,0,66.51,57.06,120.39,127.5,120.39s127.5-54,127.5-120.48c0-75.32-53.31-100.42-59.63-155-1.19-10.26,1.74-39.85-11.91-39.85Z"/><path class="cls-3" d="M342.8,242.32H458.67s1.46-54.42-2.48-72.11c-2.65-11.82-41.86-22-55.41-22s-52.85,10.17-55.42,22C341.24,187.9,342.8,242.32,342.8,242.32Z"/><path class="cls-1" d="M384.57,297.38c-1,4.86-2.11,9.53-3.21,14.3l-3.3,14.2-6.59,28.4L358.28,411l-4.67-4.39,15.29-5.13a3.56,3.56,0,0,1,4.13,1.37l13.19,18.87L380.9,421l17.5-13.92a3.7,3.7,0,0,1,4.58,0L420.38,421l-5.31.73,13.19-18.87a3.59,3.59,0,0,1,4.21-1.37l15.3,5.13L443.1,411l-13.19-56.71-6.6-28.4-3.3-14.2c-1.1-4.77-2.19-9.44-3.2-14.3a.93.93,0,0,1,.73-1.1,1,1,0,0,1,1.1.65V297c1.19,4.58,2.56,9.34,3.85,14l3.94,14,7.87,28,15.85,56.07a3.62,3.62,0,0,1-2.48,4.49,3.33,3.33,0,0,1-2.1-.09h-.09l-15.3-5.13,4.21-1.37L421.2,425.93a3.68,3.68,0,0,1-5.13.91c-.09,0-.09-.09-.18-.18l-17.4-13.93h4.58l-17.5,13.93a3.65,3.65,0,0,1-5.13-.55c0-.09-.09-.09-.18-.18l-13.19-18.87,4.12,1.37-15.29,5.13h-.09a3.59,3.59,0,0,1-4.58-2.29,3.35,3.35,0,0,1-.1-2.11L367,353.09l7.88-28,3.94-14c1.28-4.67,2.65-9.43,3.84-14v-.09a.87.87,0,0,1,1.1-.65C384.38,296.47,384.66,296.93,384.57,297.38Z"/><path class="cls-1" d="M373.12,242.32h55.14v42.05a13.11,13.11,0,0,1-13.1,13.11H386.22a13.1,13.1,0,0,1-13.1-13.11Z"/><path class="cls-4" d="M403.71,587.82,401,651a.92.92,0,0,1-.91.92,1,1,0,0,1-.92-.92l-2.75-63.22a3.67,3.67,0,1,1,7.33-.36Z"/><path class="cls-4" d="M482,564.82,511.24,621a.92.92,0,0,1-.37,1.28.9.9,0,0,1-1.19-.37l-34-53.41a3.65,3.65,0,1,1,6.14-3.94C481.93,564.64,482,564.73,482,564.82Z"/><path class="cls-4" d="M538.44,505.73l53.4,34a.9.9,0,0,1,.28,1.28,1,1,0,0,1-1.19.37l-56.15-29.23a3.67,3.67,0,1,1,3.39-6.5C538.26,505.64,538.35,505.73,538.44,505.73Z"/><path class="cls-4" d="M557.68,426.39l63.2,2.75a.91.91,0,0,1,.91.91,1,1,0,0,1-.91.92l-63.2,2.74a3.66,3.66,0,1,1-.37-7.32Z"/><path class="cls-4" d="M534.78,348.05l56.15-29.23a.93.93,0,0,1,1.28.37.9.9,0,0,1-.37,1.19l-53.4,34a3.65,3.65,0,0,1-3.93-6.14C534.6,348.14,534.69,348.14,534.78,348.05Z"/><path class="cls-4" d="M261.65,354.37l-53.4-34a.9.9,0,0,1-.28-1.28,1,1,0,0,1,1.19-.37L265.31,348a3.67,3.67,0,1,1-3.39,6.5C261.83,354.55,261.74,354.46,261.65,354.37Z"/><path class="cls-4" d="M242.32,433.72,179.12,431a.91.91,0,0,1-.91-.92,1,1,0,0,1,.91-.91l63.2-2.75a3.67,3.67,0,0,1,.37,7.33Z"/><path class="cls-4" d="M265.31,512.14l-56.15,29.23a.92.92,0,0,1-1.28-.37.91.91,0,0,1,.37-1.19l53.4-34a3.65,3.65,0,0,1,3.94,6.14C265.49,512.05,265.4,512.05,265.31,512.14Z"/><path class="cls-4" d="M324.39,568.49l-34,53.41a.9.9,0,0,1-1.28.28,1,1,0,0,1-.37-1.19L318,564.82a3.67,3.67,0,0,1,6.5,3.4C324.48,568.31,324.39,568.4,324.39,568.49Z"/><path class="cls-3" d="M391.66,16.57v149.1h16.68V18Q400,17.15,391.66,16.57Z"/></g></svg>