<svg xmlns="http://www.w3.org/2000/svg" viewBox="0 0 800 800"><defs><style>.cls-1{fill:#54324f;}.cls-2{fill:#dda14a;}.cls-3{fill:#fbf7eb;}.cls-4{fill:#e5dccc;}.cls-5{fill:#281e27;}</style></defs><title>Artboard 101 copy</title><g id="Layer_1" data-name="Layer 1"><path class="cls-1" d="M223.07,29.28c-305.61,72.37-234.23,558.1-32.07,701,198.15,140,397.38-19.11,530.41-175.69C924.54,317,597-60.2,223.07,29.28Z"/><path class="cls-2" d="M613.67,428c-2.73-5.45-18.91-12.22-29.73-17.59s-32.45-28.31-37.81-41.86S557,325.32,557,325.32C513.68,318.55,497.5,351,497.5,351c-237.71-120.22-285.12-1.41-295.85,52.68S244.93,573,244.93,573h74.31l-9.5-45.06h98.58L427.23,573h62.18l2.72-50.42c85.14-12.13,102.63-45.9,116.18-54S616.4,433.41,613.67,428Z"/><circle class="cls-3" cx="389.7" cy="201.53" r="28.03"/><circle class="cls-4" cx="332.88" cy="249.22" r="28.03"/><polygon class="cls-5" points="419.23 368.59 296.29 348.27 299.01 328.05 420.55 348.27 419.23 368.59"/></g></svg>