<svg xmlns="http://www.w3.org/2000/svg" xmlns:xlink="http://www.w3.org/1999/xlink" viewBox="0 0 800 800"><defs><style>.cls-1{fill:none;}.cls-2{clip-path:url(#clip-path);}.cls-3{fill:#e5dccc;}.cls-4{fill:#dda14a;}.cls-5{fill:#ffc973;}.cls-6{fill:#54324f;}.cls-7{fill:#44263e;}.cls-8{fill:#c98a2f;}.cls-9{fill:#281e27;}</style><clipPath id="clip-path"><path class="cls-1" d="M542.29,43.09c-314.2-180.62-746.6,330.71-420,606.63,141,119.12,519.43,280.36,624-56.29C844.57,276.86,726.31,154,542.29,43.09Z"/></clipPath></defs><title>Artboard 97 copy</title><g id="Layer_1" data-name="Layer 1"><g class="cls-2"><rect class="cls-3" width="800" height="800"/><path class="cls-4" d="M98.85,424.84V698.48H509.3V424.84Z"/><path class="cls-5" d="M343,516.79h41.85a4.73,4.73,0,0,1,4.73,4.73V625.34a4.73,4.73,0,0,1-4.73,4.73H343a4.73,4.73,0,0,1-4.73-4.73V521.52A4.73,4.73,0,0,1,343,516.79Z"/><path class="cls-5" d="M405.63,516.79h41.84a4.73,4.73,0,0,1,4.73,4.73V625.34a4.73,4.73,0,0,1-4.73,4.73H405.63a4.73,4.73,0,0,1-4.73-4.73V521.52A4.73,4.73,0,0,1,405.63,516.79Z"/><path class="cls-6" d="M172,516.79h93.15a4.73,4.73,0,0,1,4.73,4.73v177H167.26v-177A4.73,4.73,0,0,1,172,516.79Z"/><rect class="cls-7" x="219.64" y="607.62" width="33.43" height="10.69" rx="5.34" ry="5.34"/><path class="cls-8" d="M535.31,460.36H72.84A5.11,5.11,0,0,1,68.25,453l63.4-129.57a5.11,5.11,0,0,1,4.59-2.87H471.91a5.11,5.11,0,0,1,4.59,2.87l53.33,109L539.9,453A5.1,5.1,0,0,1,535.31,460.36Z"/><rect class="cls-9" x="526.75" y="597.03" width="32.12" height="10.69" rx="5.34" ry="5.34"/><rect class="cls-9" x="526.75" y="618.15" width="32.12" height="10.69" rx="5.34" ry="5.34"/><path class="cls-6" d="M575,587.24h-25.7a6.43,6.43,0,0,0-6.42,6.43v38.54a6.42,6.42,0,0,0,6.42,6.42H575a19.27,19.27,0,0,0,19.27-19.27V606.51A19.27,19.27,0,0,0,575,587.24Z"/><path class="cls-9" d="M627.43,618.31H592.68V607.62h34.75a24.33,24.33,0,0,0,24.3-24.3V353.93a24.33,24.33,0,0,0-24.3-24.31H576.17V318.93h51.26a35,35,0,0,1,35,35V583.32A35,35,0,0,1,627.43,618.31Z"/><path class="cls-9" d="M516.79,202.64H223.88a4,4,0,0,0-4,4V424.28a4,4,0,0,0,4,4H572.15a4,4,0,0,0,4-4V202.64Z"/><path class="cls-7" d="M223.88,197.64h55.37a0,0,0,0,1,0,0v75.22a0,0,0,0,1,0,0H219.86a0,0,0,0,1,0,0v-71.2A4,4,0,0,1,223.88,197.64Z"/><rect class="cls-6" x="279.24" y="197.64" width="59.39" height="75.22"/><rect class="cls-7" x="457.4" y="197.64" width="59.39" height="75.22"/><rect class="cls-6" x="516.79" y="197.64" width="59.39" height="75.22"/><rect class="cls-7" x="338.63" y="197.64" width="59.39" height="75.22"/><rect class="cls-6" x="398.01" y="197.64" width="59.39" height="75.22"/><path class="cls-7" d="M219.86,348.08h59.39a0,0,0,0,1,0,0V423.3a0,0,0,0,1,0,0H223.88a4,4,0,0,1-4-4v-71.2A0,0,0,0,1,219.86,348.08Z"/><rect class="cls-6" x="279.24" y="348.08" width="59.39" height="75.22"/><rect class="cls-7" x="457.4" y="348.08" width="59.39" height="75.22"/><path class="cls-6" d="M516.79,348.08h59.39a0,0,0,0,1,0,0v71.2a4,4,0,0,1-4,4H516.79a0,0,0,0,1,0,0V348.08A0,0,0,0,1,516.79,348.08Z"/><rect class="cls-7" x="338.63" y="348.08" width="59.39" height="75.22"/><rect class="cls-6" x="398.01" y="348.08" width="59.39" height="75.22"/><rect class="cls-7" x="516.79" y="273.17" width="59.39" height="75.22" transform="translate(1092.96 621.56) rotate(180)"/><rect class="cls-6" x="457.4" y="273.17" width="59.39" height="75.22" transform="translate(974.19 621.56) rotate(180)"/><rect class="cls-7" x="279.24" y="273.17" width="59.39" height="75.22" transform="translate(617.87 621.56) rotate(180)"/><rect class="cls-6" x="219.86" y="273.17" width="59.39" height="75.22" transform="translate(499.1 621.56) rotate(180)"/><rect class="cls-7" x="398.01" y="273.17" width="59.39" height="75.22" transform="translate(855.42 621.56) rotate(180)"/><rect class="cls-6" x="338.63" y="273.17" width="59.39" height="75.22" transform="translate(736.64 621.56) rotate(180)"/><polygon class="cls-4" points="633.84 -16.89 661.25 76.16 738.12 17 705.6 108.38 802.56 105.7 722.54 160.52 802.56 215.34 705.6 212.66 738.12 304.04 661.25 244.88 633.84 337.93 606.43 244.88 529.57 304.04 562.08 212.66 465.12 215.34 545.14 160.52 465.12 105.7 562.08 108.38 529.57 17 606.43 76.16 633.84 -16.89"/><circle class="cls-5" cx="633.84" cy="160.52" r="53.06"/></g></g></svg>