<svg width="10" height="14" viewBox="0 0 10 14" fill="none" xmlns="http://www.w3.org/2000/svg">
<path d="M9.25 5.90909C9.25 9.72727 5.125 13 5.125 13C5.125 13 1 9.72727 1 5.90909C1 4.60712 1.4346 3.35847 2.20818 2.43784C2.98177 1.51721 4.03098 1 5.125 1C6.21902 1 7.26823 1.51721 8.04182 2.43784C8.8154 3.35847 9.25 4.60712 9.25 5.90909Z" fill="#79808B" stroke="#79808B" stroke-width="0.5" stroke-linecap="round" stroke-linejoin="round"/>
<path d="M5 8C6.10457 8 7 7.10457 7 6C7 4.89543 6.10457 4 5 4C3.89543 4 3 4.89543 3 6C3 7.10457 3.89543 8 5 8Z" fill="white" stroke="#79808B" stroke-width="0.5" stroke-linecap="round" stroke-linejoin="round"/>
</svg>
